<svg width="116" height="61" viewBox="0 0 116 61" fill="none" xmlns="http://www.w3.org/2000/svg">
<path d="M31.2599 30.4231L46.0589 15.6241C46.9699 14.7121 46.9699 13.2351 46.0589 12.3251L42.4129 8.67908C41.5019 7.76908 40.0249 7.76908 39.1149 8.67908L24.3149 23.4801L9.51495 8.67908C8.60495 7.76908 7.12694 7.76908 6.21594 8.67908L2.57095 12.3251C1.65995 13.2351 1.65995 14.7121 2.57095 15.6241L17.3699 30.4231L2.57194 45.2241C1.66094 46.1341 1.66094 47.6091 2.57194 48.5211L6.21695 52.1661C7.12795 53.0781 8.60594 53.0781 9.51594 52.1681L24.3159 37.3671L39.1159 52.1681C40.0259 53.0781 41.5029 53.0781 42.4139 52.1681L46.0599 48.5221C46.9709 47.6121 46.9709 46.1351 46.0599 45.2231L31.2599 30.4231Z" fill="#EC1C24" stroke="black" stroke-width="2.5" stroke-miterlimit="10" stroke-linecap="round" stroke-linejoin="round"/>
<path d="M85.082 59.1401C100.942 59.1401 113.799 46.283 113.799 30.4231C113.799 14.5631 100.942 1.70605 85.082 1.70605C69.222 1.70605 56.365 14.5631 56.365 30.4231C56.365 46.283 69.222 59.1401 85.082 59.1401Z" fill="white" stroke="black" stroke-width="2.5" stroke-miterlimit="10"/>
<path d="M73.0049 23.4609C74.4369 23.4609 75.5979 22.3 75.5979 20.8679C75.5979 19.4358 74.4369 18.2749 73.0049 18.2749C71.5728 18.2749 70.4119 19.4358 70.4119 20.8679C70.4119 22.3 71.5728 23.4609 73.0049 23.4609Z" fill="black"/>
<path d="M97.1589 23.4609C98.591 23.4609 99.7519 22.3 99.7519 20.8679C99.7519 19.4358 98.591 18.2749 97.1589 18.2749C95.7268 18.2749 94.5659 19.4358 94.5659 20.8679C94.5659 22.3 95.7268 23.4609 97.1589 23.4609Z" fill="black"/>
<path d="M76.791 48.6183L101.019 34.2183" stroke="black" stroke-width="2.5" stroke-miterlimit="10" stroke-linecap="round" stroke-linejoin="round"/>
<path d="M102.486 28.8639C105.312 27.9209 107.359 30.2059 106.572 32.5119" stroke="black" stroke-width="2" stroke-miterlimit="10" stroke-linecap="round" stroke-linejoin="round"/>
</svg>
