<svg width="177" height="66" viewBox="0 0 177 66" fill="none" xmlns="http://www.w3.org/2000/svg">
<path d="M111.118 43.9256C111.118 42.5936 110.546 41.3926 109.638 40.5606C110.546 39.7306 111.118 38.5296 111.118 37.1976C111.118 34.6936 109.098 32.6546 106.612 32.6546H92.3449C93.6239 29.1426 95.1129 23.2386 92.5619 19.3226C91.6229 17.8796 90.7829 17.0006 89.2359 15.8436C88.7689 15.4956 87.6789 14.6796 86.5699 15.1406C85.5059 15.5816 85.1849 16.8656 85.0249 17.9316L85.0169 17.9906C84.7059 20.0416 84.1299 23.8576 82.7589 27.1136C81.1889 30.8426 79.1339 32.6546 76.4759 32.6546H74.0329C73.7379 30.7636 72.1109 29.3126 70.1519 29.3126H65.0209C62.8569 29.3126 61.0969 31.0876 61.0969 33.2676V39.4826C61.0969 40.1326 61.6179 40.6606 62.2649 40.6606C62.9119 40.6606 63.4349 40.1336 63.4349 39.4826V33.2676C63.4349 32.3846 64.1459 31.6676 65.0209 31.6676H70.1519C71.0289 31.6676 71.7419 32.3846 71.7419 33.2676V56.2736C71.7419 57.1566 71.0289 57.8736 70.1519 57.8736H65.0209C64.1459 57.8736 63.4349 57.1566 63.4349 56.2736V50.0606C63.4349 49.4106 62.9119 48.8806 62.2649 48.8806C61.6179 48.8806 61.0969 49.4096 61.0969 50.0606V56.2736C61.0969 58.4556 62.8569 60.2306 65.0209 60.2306H70.1519C72.1109 60.2306 73.7379 58.7776 74.0329 56.8866C74.0329 56.8866 77.5959 56.8866 77.8469 56.9066C77.8629 56.9336 77.8779 56.9636 77.8939 56.9886C78.0389 57.2486 78.2589 57.6406 78.6439 58.1586C79.9879 59.9696 83.2529 61.0906 85.5069 61.0906H103.868H104.044C106.298 61.0906 108.134 59.2406 108.134 56.9656C108.134 56.2816 107.968 55.6376 107.675 55.0696C109.648 54.5896 111.118 52.7926 111.118 50.6556C111.118 49.3236 110.546 48.1246 109.638 47.2926C110.546 46.4586 111.118 45.2576 111.118 43.9256ZM93.4289 58.7336H85.5069C83.6999 58.7336 81.2729 57.7666 80.5129 56.7456C80.2199 56.3496 80.0579 56.0616 79.9289 55.8296C79.1999 54.5286 78.6009 54.5286 76.6259 54.5306H74.0789V35.0096H76.4749C80.1229 35.0096 82.9609 32.6616 84.9109 28.0326C86.3949 24.5056 87.0009 20.4976 87.3269 18.3446L87.3369 18.2836C87.3919 17.9126 87.4499 17.6646 87.5009 17.4986C87.5909 17.5536 87.7019 17.6296 87.8409 17.7346C89.1709 18.7286 89.8179 19.4006 90.6089 20.6136C92.8019 23.9826 90.8839 29.9476 89.9569 32.3556C89.8459 32.6426 89.5099 33.5176 90.0199 34.2696C90.5199 35.0076 91.4239 35.0076 91.7189 35.0076H93.1289C92.7739 35.6576 92.5699 36.4036 92.5699 37.1956C92.5699 38.5416 93.1539 39.7506 94.0799 40.5826C93.1839 41.4126 92.6209 42.6036 92.6209 43.9246C92.6209 45.2566 93.1929 46.4576 94.1009 47.2896C93.1929 48.1216 92.6209 49.3206 92.6209 50.6526C92.6209 52.0276 93.2299 53.2596 94.1889 54.0936C93.4759 54.8376 93.0349 55.8496 93.0349 56.9626C93.0339 57.5976 93.1749 58.1966 93.4289 58.7336ZM104.044 58.7336H97.1239C96.1569 58.7336 95.3719 57.9406 95.3719 56.9636C95.3719 55.9886 96.1569 55.1956 97.1239 55.1956H104.044C105.009 55.1956 105.798 55.9886 105.798 56.9636C105.798 57.9406 105.009 58.7336 104.044 58.7336ZM106.612 52.8416H104.044H97.1239C95.9289 52.8416 94.9579 51.8596 94.9579 50.6536C94.9579 49.4476 95.9289 48.4676 97.1239 48.4676H106.612C107.809 48.4676 108.78 49.4476 108.78 50.6536C108.78 51.8596 107.81 52.8416 106.612 52.8416ZM106.612 46.1126H97.1239C95.9289 46.1126 94.9579 45.1326 94.9579 43.9246C94.9579 42.7196 95.9289 41.7366 97.1239 41.7366H106.612C107.809 41.7366 108.78 42.7186 108.78 43.9246C108.78 45.1326 107.81 46.1126 106.612 46.1126ZM106.612 39.3826H97.0729C95.8799 39.3826 94.9069 38.4026 94.9069 37.1966C94.9069 35.9906 95.8799 35.0086 97.0729 35.0086H106.612C107.809 35.0086 108.78 35.9906 108.78 37.1966C108.78 38.4026 107.81 39.3826 106.612 39.3826Z" fill="black"/>
<path d="M86.4289 37.0588C85.7879 37.1488 85.3429 37.7428 85.4289 38.3868C85.6769 40.2068 85.3288 41.8028 84.4228 42.9978C83.3178 44.4528 81.4148 45.3668 78.7668 45.7128C78.1258 45.7968 77.6729 46.3868 77.7569 47.0328C77.8329 47.6268 78.3349 48.0578 78.9149 48.0578C78.9639 48.0578 79.0149 48.0558 79.0649 48.0478C82.3559 47.6178 84.7819 46.4018 86.2779 44.4268C87.5729 42.7238 88.0789 40.5228 87.7449 38.0658C87.6569 37.4218 87.0689 36.9708 86.4289 37.0588Z" fill="black"/>
<path d="M88.0218 9.76376C88.6668 9.76376 89.1898 9.23876 89.1898 8.58576V1.95876C89.1898 1.30876 88.6668 0.780762 88.0218 0.780762C87.3758 0.780762 86.8518 1.30776 86.8518 1.95876V8.58576C86.8528 9.23776 87.3758 9.76376 88.0218 9.76376Z" fill="black"/>
<path d="M96.4639 12.3128C96.6629 12.4458 96.888 12.5098 97.11 12.5098C97.487 12.5098 97.86 12.3238 98.085 11.9828L101.708 6.48083C102.065 5.93783 101.919 5.20783 101.38 4.84783C100.843 4.48683 100.118 4.63483 99.759 5.17783L96.136 10.6798C95.78 11.2228 95.9269 11.9528 96.4639 12.3128Z" fill="black"/>
<path d="M77.96 11.9819C78.185 12.3239 78.556 12.5089 78.935 12.5089C79.156 12.5089 79.38 12.4449 79.58 12.3119C80.117 11.9529 80.264 11.2199 79.908 10.6789L76.279 5.17685C75.922 4.63385 75.197 4.48585 74.66 4.84685C74.123 5.20585 73.976 5.93885 74.332 6.47985L77.96 11.9819Z" fill="black"/>
<path d="M62.2649 45.9508C62.9109 45.9508 63.4349 45.4218 63.4349 44.7708C63.4349 44.1198 62.9119 43.5928 62.2649 43.5928C61.6179 43.5928 61.0969 44.1198 61.0969 44.7708V44.7768C61.0969 45.4278 61.6179 45.9508 62.2649 45.9508Z" fill="black"/>
<path d="M146.638 63.934C162.498 63.934 175.355 51.077 175.355 35.217C175.355 19.357 162.498 6.5 146.638 6.5C130.778 6.5 117.921 19.357 117.921 35.217C117.921 51.077 130.778 63.934 146.638 63.934Z" fill="white" stroke="black" stroke-width="2.5" stroke-miterlimit="10"/>
<path d="M134.561 28.2548C135.993 28.2548 137.154 27.0939 137.154 25.6618C137.154 24.2298 135.993 23.0688 134.561 23.0688C133.129 23.0688 131.968 24.2298 131.968 25.6618C131.968 27.0939 133.129 28.2548 134.561 28.2548Z" fill="black"/>
<path d="M158.715 28.2548C160.147 28.2548 161.308 27.0939 161.308 25.6618C161.308 24.2298 160.147 23.0688 158.715 23.0688C157.283 23.0688 156.122 24.2298 156.122 25.6618C156.122 27.0939 157.283 28.2548 158.715 28.2548Z" fill="black"/>
<path d="M134.562 44.7397C134.562 49.5037 139.968 53.3627 146.638 53.3627C153.308 53.3627 158.714 49.5037 158.714 44.7397" stroke="black" stroke-width="2.5" stroke-miterlimit="10" stroke-linecap="round" stroke-linejoin="round"/>
<path d="M56.5539 15.5676L51.4839 9.51465L20.7449 44.0076C19.4719 45.4376 17.4379 45.4007 16.2039 43.9277L6.03791 31.7866L2.74691 35.4816C1.47391 36.9096 1.44191 39.2606 2.67491 40.7356L17.9109 58.9296C19.1449 60.4046 21.1769 60.4397 22.4499 59.0117L56.4829 20.8236C57.7549 19.3956 57.7879 17.0426 56.5539 15.5676Z" fill="#5ABD85" stroke="black" stroke-width="2.5" stroke-miterlimit="10" stroke-linecap="round" stroke-linejoin="round"/>
</svg>
