<svg width="231" height="276" viewBox="0 0 231 276" fill="none" xmlns="http://www.w3.org/2000/svg">
<path d="M147.184 230.074L147.184 230.074C145.518 228.141 142.51 228.183 140.899 230.163C140.899 230.163 140.898 230.163 140.898 230.163L116.145 260.587C115.738 261.086 114.972 261.077 114.578 260.567L91.1307 230.249C91.1307 230.249 91.1306 230.249 91.1306 230.249C89.5042 228.146 86.3387 228.124 84.6821 230.2L84.6819 230.201L60.3757 260.677C59.979 261.175 59.225 261.18 58.8212 260.689L33.7336 230.157C32.0136 228.064 28.7727 228.185 27.2132 230.4C27.2132 230.4 27.2131 230.4 27.2131 230.4L5.81767 260.789C5.63083 261.054 5.45535 261.144 5.32086 261.185C5.15599 261.235 4.93501 261.241 4.69807 261.166C4.46112 261.091 4.28434 260.959 4.17835 260.823C4.09188 260.712 4 260.538 4 260.213V115.398C4 53.8746 53.8746 4 115.398 4C176.922 4 226.796 53.8746 226.796 115.398V259.293C226.796 259.626 226.701 259.801 226.615 259.91C226.507 260.045 226.326 260.178 226.083 260.251C225.839 260.323 225.615 260.312 225.451 260.258C225.319 260.214 225.144 260.121 224.961 259.842L205.68 230.514L205.68 230.514C204.139 228.171 200.751 228.03 199.023 230.242L175.194 260.738C174.805 261.235 174.06 261.253 173.648 260.775L147.184 230.074ZM205.328 235.168C205.326 235.169 205.325 235.171 205.324 235.173L205.327 235.168L205.328 235.168ZM27.5525 235.236L27.557 235.242C27.5554 235.24 27.5539 235.238 27.5523 235.236L27.5525 235.236Z" stroke="#61B87C" stroke-width="8" stroke-miterlimit="16"/>
<circle cx="65.1759" cy="103.268" r="24.9571" stroke="#61B87C" stroke-width="8"/>
<circle cx="165.621" cy="103.268" r="24.9571" stroke="#61B87C" stroke-width="8"/>
</svg>
