<svg width="828" height="696" viewBox="0 0 828 696" fill="none" xmlns="http://www.w3.org/2000/svg">
<style>
    .light{
         animation-name: lights;
         animation-fill-mode: forwards;
         animation-duration: 0.3s;
    }
    .light.l-1{
        animation-delay: 500ms;
    }
    .light.l-2{
        animation-delay: 1000ms;
    }
    .light.l-3{
        animation-delay: 1500ms;
    }

    .light.l-t{
        animation-delay: 2000ms;
    }

    .light.l-t-2{
        animation-delay: 2500ms;
    }
   
    @keyframes lights {
        100%{fill: #EFB73A}
    }

    .sun{
        animation-fill-mode: forwards;
         animation-name: sunny;
         animation-delay: 3000ms;
         animation-duration: 2s;
         transform: rotate(21deg)
    }
    @keyframes sunny {
        100%{transform: rotate(0deg)}
    }

    .building{
        animation-fill-mode: forwards;
        animation-duration: 0.3s;
    }
    .building.b-left{
        animation-name: builds;
        animation-delay: 4000ms;
    }
     .building.b-right{
        animation-name: builds-r;
        animation-delay: 4500ms;
    }
   
    @keyframes builds {
        100%{fill: #FAEC69}
    }
    @keyframes builds-r {
        100%{fill: #EFB73A}
    }

    .reda{
        animation-name: redA;
        animation-fill-mode: forwards;
        animation-duration: 0.3s;
    }

    .reda.r-1{
        animation-delay: 5000ms;
        animation-fill-mode: forwards;
        animation-duration: 0.3s;
    }
    
    .reda.r-2{
        animation-delay: 5500ms;
        animation-fill-mode: forwards;
        animation-duration: 0.3s;
    }

    .reda.r-3{
        animation-delay: 6000ms;
        animation-fill-mode: forwards;
        animation-duration: 0.3s;
    }

    @keyframes redA {
        100%{fill: #CE4650}
    }

     .grass{
        animation-name: grass;
        animation-delay: 6500ms;
        animation-fill-mode: forwards;
        animation-duration: 0.3s;
    }

    @keyframes grass {
        100%{fill: #76C86A}
    }

    .car{
        animation-delay: 7000ms;
        animation-fill-mode: forwards;
        animation-duration: 3s;
    }

    .car.c-1{animation-name: car1;}
    .car.c-2{animation-name: car2;}
    .car.c-3{animation-name: car3;}
    .car.c-e{animation-name: care;}


  @keyframes car1 {
        30%{fill: #EFB73A}
        100% {fill: #EFB73A; transform: translateX(50%); opacity: 0 }
  }
  @keyframes car2 {
        30%{fill: #FAEC69}
        100%{fill: #FAEC69; transform: translateX(50%); opacity: 0 }
  }
  @keyframes car3 {
        30%{fill: #CE4650}
        100%{fill: #CE4650; transform: translateX(50%); opacity: 0 }
  }
   @keyframes care {
        100%{  transform: translateX(50%); opacity: 0 }
  }



  



</style>
<g clip-path="url(#clip0_1_2)">
<path d="M827.717 695.427H0V-0.00667283H827.717V695.427Z" fill="#C7E9EF"/>
<path d="M210.037 113.439C210.037 113.324 210.045 113.209 210.045 113.096C210.045 92.112 193.056 75.0987 172.1 75.0987C167.12 75.0987 162.372 76.0694 158.016 77.8147C149.603 62.7187 133.503 52.5053 115.013 52.5053C91.0016 52.5053 71.0156 69.7254 66.6735 92.5014C65.3776 92.316 64.0547 92.2147 62.7093 92.2147C49.6579 92.2147 38.7188 101.265 35.7927 113.439H210.037Z" fill="white"/>
<path d="M173.015 113.439C173.015 113.371 173.019 113.307 173.019 113.24C173.019 101.173 163.251 91.3907 151.201 91.3907C148.339 91.3907 145.605 91.9493 143.101 92.9547C138.264 84.272 129.007 78.4 118.375 78.4C104.569 78.4 93.0765 88.3013 90.5765 101.4C89.8333 101.292 89.0729 101.235 88.2995 101.235C80.7917 101.235 74.5036 106.437 72.8214 113.439H173.015Z" fill="#EEF9F8"/>
<path d="M675.024 215.24C675.024 215.16 675.016 215.088 675.016 215.009C675.016 201.048 689.468 189.729 707.292 189.729C711.528 189.729 715.567 190.375 719.275 191.536C726.435 181.492 740.129 174.696 755.859 174.696C776.283 174.696 793.28 186.155 796.972 201.308C798.076 201.185 799.201 201.119 800.347 201.119C811.451 201.119 820.755 207.139 823.241 215.24H675.024Z" fill="white"/>
<path d="M706.517 215.24C706.517 215.195 706.512 215.149 706.512 215.105C706.512 207.077 714.823 200.571 725.072 200.571C727.507 200.571 729.831 200.94 731.961 201.605C736.079 195.832 743.952 191.924 752.995 191.924C764.741 191.924 774.517 198.512 776.641 207.225C777.273 207.155 777.92 207.115 778.58 207.115C784.967 207.115 790.315 210.579 791.747 215.237H706.517V215.24Z" fill="#EEF9F8"/>
<path d="M206.403 82.7933C206.403 82.7173 206.397 82.6426 206.397 82.5666C206.397 68.6026 217.7 57.2853 231.643 57.2853C234.957 57.2853 238.115 57.932 241.013 59.0907C246.615 49.048 257.327 42.2534 269.628 42.2534C285.603 42.2534 298.9 53.7093 301.789 68.864C302.651 68.7413 303.531 68.6747 304.425 68.6747C313.112 68.6747 320.389 74.6933 322.336 82.7933H206.403Z" fill="white"/>
<path d="M279.683 82.7933C279.683 82.7507 279.68 82.7053 279.68 82.6613C279.68 74.632 286.179 68.1254 294.196 68.1254C296.101 68.1254 297.919 68.496 299.584 69.1627C302.804 63.3867 308.965 59.48 316.036 59.48C325.223 59.48 332.868 66.068 334.533 74.7814C335.028 74.7094 335.535 74.6707 336.048 74.6707C341.043 74.6707 345.228 78.1334 346.345 82.792H279.683V82.7933Z" fill="#EEF9F8"/>
<path d="M244.192 136.272V272.521H128.289V151.411H198.839V136.272H244.192Z" fill="#E0E9F0"/>
<path d="M143.407 166.549H153.485V176.641H143.407V166.549Z" fill="#407294"/>
<path d="M163.563 166.549H173.643V176.641H163.563V166.549Z" fill="#407294"/>
<path d="M183.72 166.549H193.8V176.641H183.72V166.549Z" fill="#407294"/>
<path class="light l-3" d="M203.877 166.549H213.957V176.641H203.877V166.549Z" fill="#407294"/>
<path d="M224.033 166.549H234.115V176.641H224.033V166.549Z" fill="#407294"/>
<path d="M143.407 186.735H153.485V196.827H143.407V186.735Z" fill="#407294"/>
<path class="light l-1" d="M163.563 186.735H173.643V196.827H163.563V186.735Z" fill="#407294"/>
<path class="light l-2" d="M183.72 186.735H193.8V196.827H183.72V186.735Z" fill="#407294"/>
<path d="M203.877 186.735H213.957V196.827H203.877V186.735Z" fill="#407294"/>
<path d="M224.033 186.735H234.115V196.827H224.033V186.735Z" fill="#407294"/>
<path d="M143.407 206.92H153.485V217.012H143.407V206.92Z" fill="#407294"/>
<path d="M163.563 206.92H173.643V217.012H163.563V206.92Z" fill="#407294"/>
<path d="M183.72 206.92H193.8V217.012H183.72V206.92Z" fill="#407294"/>
<path d="M203.877 206.92H213.957V217.012H203.877V206.92Z" fill="#407294"/>
<path d="M224.033 206.92H234.115V217.012H224.033V206.92Z" fill="#407294"/>
<path d="M143.407 227.105H153.485V237.197H143.407V227.105Z" fill="#89929B"/>
<path d="M163.563 227.105H173.643V237.197H163.563V227.105Z" fill="#407294"/>
<path d="M183.72 227.105H193.8V237.197H183.72V227.105Z" fill="#407294"/>
<path d="M203.877 227.105H213.957V237.197H203.877V227.105Z" fill="#89929B"/>
<path d="M224.033 227.105H234.115V237.197H224.033V227.105Z" fill="#89929B"/>
<path d="M148.445 121.135H158.525V151.411H148.445V121.135Z" fill="#407294"/>
<path d="M163.563 136.272H173.643V151.411H163.563V136.272Z" fill="#407294"/>
<path d="M55.8855 137.973L46.1156 144.377L43.3214 139.255L50.6823 127.799L55.8855 137.973Z" fill="#407294"/>
<path d="M55.8855 137.973C56.776 137.713 57.5781 137.264 58.25 136.657C63.2672 139.872 79.9437 150.361 85.9011 151.66L80.1432 144.016L59.8672 134.276C61.1355 130.86 59.2041 127.403 56.0183 126.391C56.2927 120.359 57.014 100.769 55.1651 94.972L51.4339 103.788L53.1448 126.187C49.8255 126.767 47.4828 130 48.2787 133.508C42.9541 136.271 25.6016 145.463 21.5079 149.971L30.9973 148.799L49.5765 136.073C50.336 136.969 51.3401 137.635 52.4948 137.973C50.5323 156.579 52.3568 130.811 48.5287 226.481H59.8516C56.026 130.812 57.8464 156.572 55.8855 137.973Z" fill="#85AFB3"/>
<path d="M135.735 215.076L134.631 207.895L125.26 194.723C126.211 192.164 124.767 189.565 122.372 188.803C122.578 184.275 127.287 181.195 131.609 167.765L126.575 174.384L120.214 188.649C117.725 189.085 115.964 191.511 116.561 194.147C112.565 196.221 103.008 196.392 93.3751 199.216L101.443 203.044L117.535 196.072C118.104 196.745 118.858 197.244 119.728 197.499C118.414 209.947 119.815 189.76 116.064 268.341H125.935C122.201 190.081 123.633 210.413 122.272 197.499C122.94 197.304 123.546 196.965 124.047 196.511C127.814 198.924 131.609 210.465 135.735 215.076Z" fill="#1C375C"/>
<path d="M109.075 176.659C109.745 176.464 110.346 176.127 110.851 175.671C114.617 178.084 127.136 185.96 131.609 186.935L127.287 181.195L112.064 173.883C113.016 171.325 111.57 168.724 109.177 167.964C109.383 163.436 109.923 148.728 108.534 144.377L105.733 150.996L107.018 167.809C104.53 168.245 102.768 170.671 103.366 173.307C99.3688 175.381 86.3412 182.281 83.2672 185.665L90.3932 184.787L104.34 175.232C104.909 175.907 105.663 176.405 106.53 176.659C105.219 189.107 106.62 168.92 102.867 247.501H112.74C109.005 169.241 110.437 189.575 109.075 176.659Z" fill="#407294"/>
<path d="M54.874 126.061C58.151 126.061 60.803 128.717 60.803 131.999C60.803 135.277 58.151 137.935 54.874 137.935C51.6005 137.935 48.9469 135.277 48.9469 131.999C48.9469 128.717 51.6005 126.061 54.874 126.061Z" fill="#407294"/>
<path d="M54.874 130.184C54.874 128.675 55.439 127.297 56.3645 126.251C55.888 126.127 55.3896 126.061 54.874 126.061C51.6005 126.061 48.9469 128.717 48.9469 131.997C48.9469 135.277 51.6005 137.933 54.874 137.933C56.6417 137.933 58.2281 137.159 59.3125 135.931C56.7588 135.271 54.874 132.949 54.874 130.184Z" fill="#1C375C"/>
<path d="M107.439 167.765C109.754 167.765 111.629 169.643 111.629 171.961C111.629 174.277 109.754 176.156 107.439 176.156C105.125 176.156 103.25 174.277 103.25 171.961C103.25 169.643 105.125 167.765 107.439 167.765Z" fill="#407294"/>
<path d="M107.439 170.679C107.439 169.612 107.837 168.639 108.49 167.899C108.155 167.812 107.801 167.765 107.439 167.765C105.125 167.765 103.25 169.643 103.25 171.96C103.25 174.277 105.125 176.155 107.439 176.155C108.687 176.155 109.808 175.608 110.575 174.74C108.771 174.273 107.439 172.633 107.439 170.679Z" fill="#1C375C"/>
<path d="M121.207 187.992C123.82 187.992 125.937 190.113 125.937 192.731C125.937 195.348 123.82 197.467 121.207 197.467C118.594 197.467 116.475 195.348 116.475 192.731C116.475 190.113 118.594 187.992 121.207 187.992Z" fill="#407294"/>
<path d="M121.207 191.283C121.207 190.077 121.658 188.979 122.396 188.143C122.016 188.044 121.619 187.992 121.207 187.992C118.594 187.992 116.475 190.112 116.475 192.729C116.475 195.348 118.594 197.467 121.207 197.467C122.617 197.467 123.883 196.849 124.748 195.869C122.709 195.343 121.207 193.489 121.207 191.283Z" fill="#1C375C"/>
<path d="M53.703 136.088L52.165 206.672L54.874 207.225L53.703 136.088Z" fill="#407294"/>
<path d="M107.439 175.047L106.913 222.592L108.669 223.308L107.439 175.047Z" fill="#1C375C"/>
<path d="M767.659 538.673V413.811C765.856 416.316 741.569 424.449 484.751 411.255C186.671 395.937 0 564.105 0 564.105V695.427H62.376H767.659H827.717V538.673H767.659Z" fill="#85AFB3"/>
<path class="grass" d="M689.692 379.308C680.496 351.755 644.023 314.855 527.003 287.383C425.985 263.667 301.595 261.247 199.033 265.213C164.427 249.44 123.101 230.909 102.728 222.909C58.2421 205.436 0 201.204 0 201.204V281.64V291.4V564.105C0 564.105 170.048 410.927 444.7 410.279L450.567 548.001C472.377 548.001 494.288 548.269 516.025 547.68C584.276 545.833 767.659 538.673 767.659 538.673H827.717V358.671C827.717 358.671 710.676 291.457 689.692 379.308Z" fill="#E0E9F0"/>
<path d="M121.365 408.728L171.996 410.197L171.865 414.679L121.236 413.211L121.365 408.728Z" fill="#1C375C"/>
<path d="M155.673 435.52L162.164 435.708L161.936 443.553L155.444 443.367L155.673 435.52Z" fill="#1C375C"/>
<path d="M178.489 410.384L114.874 408.539L112.704 398.383L112.223 396.121L110.297 387.096L173.913 388.941L175.837 397.971L176.32 400.228L178.489 410.384Z" fill="#85AFB3"/>
<path d="M147.881 435.296L155.673 435.52L155.077 456.075L147.285 455.851L147.881 435.296Z" fill="#407294"/>
<path d="M118.768 408.651L123.961 408.804L123.831 413.285L118.638 413.135L118.768 408.651Z" fill="#415462"/>
<path d="M140.869 458.047L144.896 453.676L157.877 454.051L161.643 458.648L140.869 458.047Z" fill="#407294"/>
<path d="M162.067 439.069L165.961 439.181L165.896 441.427L162.001 441.312L162.067 439.069Z" fill="#1C375C"/>
<path d="M168.561 400.004L170.728 410.16L168.075 410.083L165.907 399.927L159.472 399.739L161.64 409.895L158.985 409.82L156.819 399.663L150.383 399.476L152.552 409.635L149.897 409.556L147.731 399.4L141.297 399.213L143.465 409.369L140.809 409.291L138.644 399.135L132.208 398.947L134.376 409.105L131.721 409.028L129.555 398.872L123.121 398.684L125.291 408.84L122.634 408.765L120.468 398.605L112.704 398.383L112.223 396.121L119.984 396.348L118.057 387.323L120.712 387.397L122.636 396.424L129.075 396.613L127.147 387.585L129.799 387.66L131.726 396.689L138.16 396.877L136.233 387.848L138.888 387.927L140.813 396.952L147.249 397.14L145.323 388.111L147.973 388.189L149.903 397.217L156.337 397.405L154.409 388.377L157.064 388.452L158.991 397.481L165.424 397.668L163.497 388.64L166.152 388.716L168.079 397.744L175.837 397.971L176.32 400.228L168.561 400.004Z" fill="#407294"/>
<path d="M184.233 436.351L120.62 434.501L118.451 424.345L117.969 422.088L116.042 413.059L179.656 414.905L181.584 423.935L182.067 426.195L184.233 436.351Z" fill="#85AFB3"/>
<path d="M174.305 425.968L176.473 436.124L173.819 436.049L171.652 425.889L165.216 425.703L167.385 435.861L164.731 435.783L162.564 425.627L156.131 425.439L158.299 435.599L155.643 435.517L153.475 425.364L147.041 425.176L149.209 435.332L146.555 435.255L144.388 425.099L137.953 424.911L140.121 435.069L137.467 434.992L135.3 424.835L128.866 424.648L131.035 434.804L128.379 434.728L126.213 424.569L118.451 424.345L117.969 422.088L125.729 422.312L123.802 413.285L126.457 413.361L128.384 422.389L134.817 422.575L132.892 413.549L135.544 413.624L137.472 422.653L143.907 422.84L141.977 413.812L144.632 413.889L146.56 422.916L152.993 423.104L151.067 414.075L153.72 414.153L155.647 423.179L162.084 423.369L160.153 414.337L162.808 414.416L164.736 423.444L171.169 423.632L169.241 414.604L171.897 414.681L173.823 423.708L181.584 423.935L182.067 426.195L174.305 425.968Z" fill="#407294"/>
<path d="M113.115 396.435H129.582L137.333 434.335L125.223 437.283L113.115 396.435Z" fill="#1C375C"/>
<path d="M56.2473 423.432L123.842 425.395L123.682 430.889L56.0885 428.929L56.2473 423.432Z" fill="#1C375C"/>
<path d="M102.129 456.387L110.796 456.637L110.516 466.257L101.851 466.007L102.129 456.387Z" fill="#1C375C"/>
<path d="M132.509 425.645L47.5818 423.179L44.6563 410.72L44.0068 407.952L41.4036 396.877L126.332 399.343L128.931 410.416L129.582 413.187L132.509 425.645Z" fill="#85AFB3"/>
<path d="M91.7292 456.088L102.129 456.387L101.449 479.88L91.0494 479.577L91.7292 456.088Z" fill="#407294"/>
<path d="M52.7812 423.329L59.7136 423.533L59.5547 429.028L52.6208 428.827L52.7812 423.329Z" fill="#1C375C"/>
<path d="M82.4271 484.827L87.7864 479.484L105.117 479.987L110.159 485.632L82.4271 484.827Z" fill="#407294"/>
<path d="M110.675 460.763L115.876 460.911L115.796 463.659L110.596 463.509L110.675 460.763Z" fill="#1C375C"/>
<path d="M119.221 412.887L122.148 425.345L118.607 425.241L115.68 412.783L107.089 412.536L110.017 424.993L106.473 424.889L103.547 412.432L94.9573 412.181L97.8828 424.64L94.3369 424.539L91.414 412.08L82.8254 411.829L85.7516 424.288L82.2057 424.187L79.2822 411.728L70.6926 411.479L73.6188 423.937L70.0745 423.832L67.151 411.375L58.5584 411.124L61.4869 423.585L57.9426 423.481L55.0172 411.023L44.6562 410.72L44.0068 407.952L54.3672 408.252L51.7656 397.179L55.3098 397.28L57.9088 408.353L66.4984 408.604L63.8994 397.531L67.4417 397.632L70.0426 408.708L78.6312 408.955L76.0302 397.883L79.5745 397.984L82.1745 409.059L90.764 409.307L88.164 398.233L91.703 398.337L94.3062 409.411L102.896 409.66L100.294 398.588L103.837 398.692L106.439 409.765L115.03 410.015L112.427 398.939L115.973 399.041L118.571 410.116L128.931 410.416L129.582 413.187L119.221 412.887Z" fill="#407294"/>
<path d="M140.259 457.496L55.3333 455.031L52.4063 442.572L51.7552 439.801L49.1547 428.725L134.083 431.192L136.684 442.265L137.333 445.039L140.259 457.496Z" fill="#85AFB3"/>
<path d="M126.973 444.733L129.898 457.195L126.357 457.091L123.431 444.632L114.841 444.383L117.767 456.843L114.221 456.739L111.298 444.28L102.709 444.031L105.634 456.492L102.09 456.384L99.165 443.929L90.5754 443.679L93.5027 456.137L89.9573 456.033L87.0323 443.575L78.4427 443.327L81.3688 455.785L77.8245 455.681L74.9011 443.223L66.3115 442.973L69.2369 455.435L65.6927 455.332L62.7683 442.872L52.4063 442.572L51.7552 439.801L62.1172 440.101L59.5183 429.028L63.0599 429.129L65.6615 440.205L74.25 440.455L71.6494 429.38L75.1927 429.484L77.7927 440.556L86.3828 440.807L83.7812 429.731L87.3245 429.835L89.9245 440.908L98.5156 441.156L95.915 430.083L99.4557 430.184L102.056 441.26L110.648 441.509L108.046 430.437L111.59 430.539L114.19 441.613L122.78 441.864L120.177 430.788L123.721 430.889L126.323 441.965L136.684 442.265L137.333 445.039L126.973 444.733Z" fill="#407294"/>
<path d="M264.944 387.979L297.88 388.935L297.796 391.848L264.861 390.895L264.944 387.979Z" fill="#1C375C"/>
<path d="M287.263 405.405L291.483 405.528L291.336 410.632L287.113 410.509L287.263 405.405Z" fill="#1C375C"/>
<path d="M302.104 389.056L260.721 387.853L259.311 381.247L258.997 379.777L257.745 373.905L299.128 375.108L300.38 380.981L300.693 382.449L302.104 389.056Z" fill="#85AFB3"/>
<path d="M282.195 405.263L287.263 405.405L286.875 418.777L281.805 418.632L282.195 405.263Z" fill="#407294"/>
<path d="M263.253 387.927L266.632 388.028L266.548 390.941L263.171 390.843L263.253 387.927Z" fill="#415462"/>
<path d="M277.633 420.059L280.251 417.217L288.696 417.46L291.144 420.452L277.633 420.059Z" fill="#407294"/>
<path d="M291.42 407.716L293.953 407.788L293.913 409.249L291.379 409.173L291.42 407.716Z" fill="#1C375C"/>
<path d="M295.645 382.304L297.055 388.911L295.329 388.859L293.919 382.252L289.733 382.129L291.144 388.739L289.417 388.689L288.008 382.08L283.82 381.96L285.232 388.567L283.505 388.517L282.095 381.911L277.911 381.788L279.32 388.395L277.593 388.345L276.184 381.736L271.999 381.616L273.409 388.223L271.681 388.173L270.272 381.567L266.085 381.444L267.497 388.051L265.771 388.001L264.361 381.395L259.311 381.247L258.997 379.777L264.047 379.927L262.793 374.053L264.52 374.104L265.772 379.976L269.959 380.099L268.704 374.225L270.431 374.272L271.685 380.148L275.869 380.268L274.616 374.395L276.343 374.447L277.596 380.32L281.783 380.439L280.529 374.567L282.253 374.616L283.508 380.492L287.695 380.611L286.44 374.739L288.168 374.788L289.42 380.66L293.605 380.783L292.352 374.911L294.079 374.96L295.332 380.832L300.38 380.981L300.693 382.449L295.645 382.304Z" fill="#407294"/>
<path d="M305.841 405.947L264.46 404.744L263.048 398.137L262.735 396.668L261.481 390.796L302.863 391.996L304.117 397.869L304.431 399.34L305.841 405.947Z" fill="#85AFB3"/>
<path d="M299.381 399.192L300.793 405.799L299.067 405.752L297.657 399.143L293.471 399.02L294.88 405.629L293.153 405.577L291.747 398.971L287.559 398.848L288.971 405.457L287.243 405.405L285.832 398.799L281.647 398.679L283.057 405.285L281.331 405.233L279.92 398.627L275.736 398.507L277.145 405.113L275.417 405.061L274.009 398.455L269.823 398.335L271.235 404.941L269.507 404.892L268.097 398.283L263.048 398.137L262.735 396.668L267.784 396.815L266.529 390.941L268.257 390.992L269.511 396.867L273.695 396.987L272.441 391.113L274.168 391.163L275.421 397.039L279.608 397.159L278.353 391.285L280.08 391.335L281.333 397.208L285.52 397.329L284.267 391.455L285.991 391.507L287.245 397.38L291.431 397.501L290.176 391.627L291.905 391.679L293.157 397.551L297.343 397.673L296.088 391.799L297.816 391.851L299.069 397.723L304.117 397.869L304.431 399.34L299.381 399.192Z" fill="#407294"/>
<path d="M209.451 394.728L253.421 396.007L253.317 399.583L209.348 398.307L209.451 394.728Z" fill="#1C375C"/>
<path d="M239.297 416.168L244.935 416.329L244.752 422.588L239.116 422.427L239.297 416.168Z" fill="#1C375C"/>
<path d="M259.059 396.171L203.813 394.567L201.912 386.46L201.487 384.66L199.795 377.455L255.041 379.059L256.732 386.263L257.155 388.064L259.059 396.171Z" fill="#85AFB3"/>
<path d="M232.531 415.973L239.297 416.168L238.856 431.449L232.089 431.255L232.531 415.973Z" fill="#407294"/>
<path d="M207.195 394.663L211.704 394.796L211.601 398.369L207.091 398.239L207.195 394.663Z" fill="#1C375C"/>
<path d="M226.481 434.668L229.967 431.192L241.24 431.52L244.521 435.192L226.481 434.668Z" fill="#407294"/>
<path d="M244.857 419.015L248.24 419.111L248.188 420.897L244.805 420.801L244.857 419.015Z" fill="#1C375C"/>
<path d="M250.416 387.869L252.319 395.976L250.016 395.908L248.112 387.804L242.525 387.643L244.428 395.747L242.123 395.679L240.22 387.575L234.632 387.413L236.535 395.515L234.229 395.449L232.328 387.345L226.739 387.181L228.643 395.288L226.337 395.22L224.435 387.116L218.848 386.955L220.751 395.059L218.445 394.992L216.543 386.887L210.953 386.723L212.86 394.829L210.553 394.763L208.649 386.659L201.912 386.46L201.487 384.66L208.227 384.853L206.535 377.653L208.84 377.717L210.532 384.921L216.12 385.083L214.428 377.88L216.732 377.947L218.424 385.151L224.011 385.312L222.319 378.108L224.625 378.176L226.316 385.38L231.905 385.541L230.213 378.337L232.515 378.405L234.208 385.608L239.797 385.772L238.103 378.569L240.409 378.637L242.1 385.84L247.689 386.001L245.996 378.796L248.304 378.864L249.993 386.067L256.732 386.263L257.155 388.064L250.416 387.869Z" fill="#407294"/>
<path d="M264.101 416.889L208.856 415.285L206.951 407.181L206.529 405.377L204.837 398.173L260.084 399.777L261.775 406.981L262.197 408.785L264.101 416.889Z" fill="#85AFB3"/>
<path d="M255.459 408.588L257.361 416.692L255.057 416.624L253.155 408.523L247.567 408.359L249.469 416.463L247.164 416.395L245.263 408.291L239.675 408.129L241.579 416.236L239.271 416.165L237.369 408.064L231.781 407.9L233.685 416.004L231.379 415.939L229.477 407.832L223.889 407.671L225.792 415.775L223.487 415.708L221.584 407.604L215.997 407.441L217.9 415.549L215.595 415.481L213.692 407.377L206.951 407.181L206.529 405.377L213.269 405.572L211.58 398.369L213.881 398.435L215.575 405.64L221.16 405.804L219.471 398.599L221.775 398.665L223.467 405.869L229.053 406.031L227.361 398.827L229.667 398.895L231.359 406.099L236.947 406.26L235.253 399.056L237.557 399.124L239.251 406.327L244.839 406.492L243.145 399.285L245.453 399.351L247.143 406.556L252.732 406.72L251.037 399.515L253.343 399.583L255.036 406.785L261.775 406.981L262.197 408.785L255.459 408.588Z" fill="#407294"/>
<path d="M638.751 163.233C638.713 162.423 638.256 161.796 637.709 161.799H629.383C628.837 161.796 628.384 162.42 628.343 163.231L625.217 235.723C625.199 236.155 625.299 236.579 625.495 236.895C625.693 237.212 625.972 237.388 626.26 237.388H640.833C641.125 237.388 641.401 237.212 641.597 236.895C641.796 236.579 641.897 236.155 641.873 235.723L638.751 163.233Z" fill="#85AFB3"/>
<path d="M629.383 155.607H637.709C638.285 155.607 638.751 156.3 638.751 157.156V163.351C638.751 164.205 638.285 164.899 637.709 164.899H629.383C628.808 164.899 628.343 164.205 628.343 163.351V157.156C628.343 156.3 628.808 155.607 629.383 155.607Z" fill="#407294"/>
<path d="M627.864 174.324H637.424V176.431H627.773L627.864 174.324Z" fill="#407294"/>
<path d="M626.876 197.253H638.296V199.361H626.785L626.876 197.253Z" fill="#407294"/>
<path d="M626.376 208.837H639.065V210.944H626.287L626.376 208.837Z" fill="#407294"/>
<path d="M603.237 192.32C603.195 191.511 602.74 190.883 602.195 190.885H593.867C593.32 190.883 592.865 191.507 592.827 192.317L589.703 254.264C589.68 254.693 589.781 255.119 589.979 255.435C590.177 255.751 590.452 255.929 590.744 255.929H605.317C605.605 255.929 605.887 255.751 606.083 255.435C606.28 255.119 606.379 254.693 606.361 254.264L603.237 192.32Z" fill="white"/>
<path d="M593.867 184.693H602.195C602.768 184.693 603.237 185.388 603.237 186.243V192.437C603.237 193.292 602.768 193.985 602.195 193.985H593.867C593.292 193.985 592.827 193.292 592.827 192.437V186.243C592.827 185.388 593.292 184.693 593.867 184.693Z" fill="#85AFB3"/>
<path d="M592.267 203.411H601.905V205.519H592.161L592.267 203.411Z" fill="#85AFB3"/>
<path d="M591.743 214.875H602.241V216.983H591.639L591.743 214.875Z" fill="#85AFB3"/>
<path d="M591.04 226.34H602.779V228.448H590.936L591.04 226.34Z" fill="#85AFB3"/>
<path d="M580.448 197.757C580.407 196.947 579.953 196.32 579.405 196.323H571.079C570.533 196.32 570.08 196.944 570.037 197.755L566.915 259.7C566.891 260.131 566.992 260.555 567.191 260.871C567.388 261.188 567.663 261.365 567.955 261.365H582.528C582.819 261.365 583.097 261.188 583.293 260.871C583.493 260.555 583.592 260.131 583.572 259.7L580.448 197.757Z" fill="white"/>
<path d="M571.079 190.131H579.405C579.981 190.131 580.448 190.824 580.448 191.679V197.873C580.448 198.728 579.981 199.423 579.405 199.423H571.079C570.503 199.423 570.037 198.728 570.037 197.873V191.679C570.037 190.824 570.503 190.131 571.079 190.131Z" fill="#85AFB3"/>
<path d="M569.479 208.847H579.119V210.955H569.372L569.479 208.847Z" fill="#85AFB3"/>
<path d="M568.953 220.312H579.452V222.419H568.849L568.953 220.312Z" fill="#85AFB3"/>
<path d="M568.251 231.776H579.989V233.884H568.147L568.251 231.776Z" fill="#85AFB3"/>
<path d="M567.759 243.36H580.763V245.468H567.653L567.759 243.36Z" fill="#85AFB3"/>
<path d="M551.324 252.625H628.211V316.411H551.324V252.625Z" fill="white"/>
<path d="M584.511 252.625H628.213V316.411H584.511V252.625Z" fill="#E0E9F0"/>
<path d="M475.86 277.188H628.211V316.411H475.86V277.188Z" fill="#85AFB3"/>
<path d="M633.544 231.423L653.053 239.153V332.179H614.039V219.389L633.544 231.423Z" fill="white"/>
<path d="M633.544 231.423V332.179H614.039V219.389L633.544 231.423Z" fill="#E0E9F0"/>
<path d="M633.544 229.741L653.053 240.092H614.039V219.389L633.544 229.741Z" fill="#E0E9F0"/>
<path d="M633.544 229.741V240.092H614.039V219.389L633.544 229.741Z" fill="#407294"/>
<path d="M366.456 87.496L371.256 180.496H352.283C351.684 180.496 351.205 179.995 351.237 179.396L355.983 87.4947C356.025 86.66 356.711 86.008 357.545 86.008H364.893C365.728 86.008 366.415 86.6627 366.456 87.496Z" fill="white"/>
<path class="reda r-3" d="M367.056 99.076L367.833 114.155H354.604L355.383 99.076H367.056Z" fill="#1C375C"/>
<path class="reda r-3" d="M368.547 127.975L369.324 143.053H353.112L353.892 127.975H368.547Z" fill="#1C375C"/>
<path class="reda r-3" d="M369.883 153.859L370.66 168.937H351.777L352.556 153.859H369.883Z" fill="#1C375C"/>
<path d="M403.237 87.496L408.037 180.497H389.065C388.465 180.497 387.988 179.993 388.02 179.396L392.763 87.4947C392.807 86.66 393.493 86.008 394.328 86.008H401.675C402.507 86.008 403.196 86.6627 403.237 87.496Z" fill="white"/>
<path class="reda r-3" d="M403.839 99.076L404.616 114.155H391.385L392.165 99.076H403.839Z" fill="#1C375C"/>
<path class="reda r-3" d="M405.328 127.975L406.105 143.053H389.895L390.675 127.975H405.328Z" fill="#1C375C"/>
<path class="reda r-3" d="M406.663 153.86L407.443 168.937H388.56L389.339 153.86H406.663Z" fill="#1C375C"/>
<path d="M473.488 122.136L478.289 215.139H459.315C458.715 215.139 458.239 214.635 458.269 214.037L463.013 122.136C463.057 121.301 463.744 120.649 464.576 120.649H471.925C472.757 120.649 473.447 121.303 473.488 122.136Z" fill="white"/>
<path class="reda r-3" d="M474.088 133.717L474.867 148.795H461.636L462.416 133.717H474.088Z" fill="#1C375C"/>
<path class="reda r-3" d="M475.58 162.616L476.357 177.695H460.144L460.921 162.616H475.58Z" fill="#1C375C"/>
<path class="reda r-3" d="M476.913 188.501L477.692 203.577H458.809L459.588 188.501H476.913Z" fill="#1C375C"/>
<path d="M343.539 175.521H452.285V278.013H343.539V175.521Z" fill="#E0E9F0"/>
<path d="M452.285 213.956H484.271V278.013H452.285V213.956Z" fill="#407294"/>
<path d="M513.059 278.013H506.661V229.971H484.271V223.564H509.861C511.627 223.564 513.059 224.999 513.059 226.768V278.013Z" fill="#85AFB3"/>
<path d="M500.264 278.013H493.865V242.783H484.271V236.376H497.065C498.831 236.376 500.264 237.811 500.264 239.58V278.013Z" fill="#85AFB3"/>
<path d="M461.881 236.376H474.677V242.783H461.881V236.376Z" fill="#85AFB3"/>
<path d="M461.881 223.564H474.677V229.971H461.881V223.564Z" fill="#85AFB3"/>
<path d="M337.141 174.429H458.684V187.241H337.141V174.429Z" fill="#407294"/>
<path d="M351.237 194.648H358.651V202.073H351.237V194.648Z" fill="#85AFB3"/>
<path class="light l-t" d="M351.237 209.499H358.651V216.925H351.237V209.499Z" fill="#85AFB3"/>
<path class="light l-t" d="M366.068 194.648H373.484V202.073H366.068V194.648Z" fill="#85AFB3"/>
<path class="light l-t" d="M366.068 209.499H373.484V216.925H366.068V209.499Z" fill="#85AFB3"/>
<path class="light l-t-2" d="M388.316 194.648H395.731V202.073H388.316V194.648Z" fill="#85AFB3"/>
<path d="M388.316 209.499H395.731V216.925H388.316V209.499Z" fill="#85AFB3"/>
<path class="light l-t-2" d="M403.147 194.648H410.564V202.073H403.147V194.648Z" fill="#85AFB3"/>
<path d="M403.147 209.499H410.564V216.925H403.147V209.499Z" fill="#85AFB3"/>
<path d="M425.396 194.648H432.809V202.073H425.396V194.648Z" fill="#85AFB3"/>
<path d="M425.396 209.499H432.809V216.925H425.396V209.499Z" fill="#85AFB3"/>
<path d="M440.227 194.648H447.643V202.073H440.227V194.648Z" fill="#85AFB3"/>
<path class="light l-t-2" d="M440.227 209.499H447.643V216.925H440.227V209.499Z" fill="#85AFB3"/>
<path d="M359.529 233.173H417.103V245.984H359.529V233.173Z" fill="#407294"/>
<path d="M365.927 245.984H388.316V278.013H365.927V245.984Z" fill="#85AFB3"/>
<path d="M388.316 245.984H410.707V278.013H388.316V245.984Z" fill="#47A0AF"/>
<path class="light l-t-2" d="M338.471 212.619C338.471 214.997 336.545 216.925 334.171 216.925C331.795 216.925 329.871 214.997 329.871 212.619C329.871 210.241 331.795 208.312 334.171 208.312C336.545 208.312 338.471 210.241 338.471 212.619Z" fill="#85AFB3"/>
<path d="M316.869 226.768H321.357V278.013H316.869V226.768Z" fill="#1C375C"/>
<path d="M320.284 227.867H317.943V209.307C317.943 206.828 319.957 204.813 322.429 204.813H330.853C333.327 204.813 335.341 206.828 335.341 209.307H333C333 208.123 332.036 207.157 330.853 207.157H322.429C321.248 207.157 320.284 208.123 320.284 209.307V227.867Z" fill="#407294"/>
<path d="M330.489 210.424C331.313 210.765 332.617 210.991 334.096 210.991C335.647 210.991 337.013 210.747 337.828 210.379C337.072 209.144 335.723 208.312 334.171 208.312C332.6 208.312 331.24 209.165 330.489 210.424Z" fill="#407294"/>
<path d="M613.397 330.409C609.819 333.563 605.125 335.479 599.983 335.479C588.769 335.479 579.681 326.376 579.681 315.147C579.681 306.319 585.299 298.805 593.151 295.996C593.945 285.493 602.705 277.22 613.397 277.22C624.088 277.22 632.848 285.493 633.64 295.996C641.493 298.805 647.115 306.319 647.115 315.147C647.115 326.376 638.023 335.477 626.808 335.477C621.669 335.479 616.972 333.563 613.397 330.409Z" fill="#E0E9F0"/>
<path d="M613.397 330.409C613.397 319.813 613.397 284.561 613.397 277.22C624.088 277.22 632.848 285.493 633.64 295.996C641.493 298.805 647.115 306.319 647.115 315.147C647.115 326.376 638.023 335.477 626.808 335.477C621.669 335.479 616.972 333.563 613.397 330.409Z" fill="#47A0AF"/>
<path d="M625.763 308.347L623.664 304.351L615.649 308.572V299.683H611.14V318.579L603.128 314.359L601.028 318.356L611.14 323.681V354.285H615.649V313.672L625.763 308.347Z" fill="#407294"/>
<path d="M625.763 308.347L623.664 304.351L615.649 308.572V299.683H613.397V354.285H615.649V313.672L625.763 308.347Z" fill="#1E2328"/>
<path d="M575.363 339.163C572.061 341.856 567.723 343.493 562.973 343.493C552.619 343.493 544.224 335.721 544.224 326.135C544.224 318.6 549.416 312.185 556.665 309.787C557.399 300.821 565.489 293.757 575.363 293.757C585.239 293.757 593.328 300.821 594.063 309.787C601.315 312.185 606.505 318.6 606.505 326.135C606.505 335.721 598.108 343.492 587.752 343.492C583.004 343.493 578.669 341.856 575.363 339.163Z" fill="#E0E9F0"/>
<path d="M575.363 339.163C575.363 330.119 575.363 300.024 575.363 293.757C585.239 293.757 593.328 300.821 594.063 309.787C601.315 312.185 606.505 318.6 606.505 326.135C606.505 335.721 598.108 343.492 587.752 343.492C583.004 343.493 578.669 341.856 575.363 339.163Z" fill="#47A0AF"/>
<path d="M586.788 320.329L584.848 316.919L577.447 320.521V312.933H573.281V329.065L565.879 325.463L563.941 328.876L573.281 333.421V359.549H577.447V324.877L586.788 320.329Z" fill="#407294"/>
<path d="M586.788 320.329L584.848 316.919L577.447 320.521V312.933H575.363V359.549H577.447V324.877L586.788 320.329Z" fill="#1E2328"/>
<path d="M306.293 261.151L305.805 261.523C291.509 272.493 266.712 272.317 252.737 261.151C255.277 252.887 256.947 244.141 257.595 235.06C257.804 232.189 257.908 229.281 257.908 226.347H301.124C301.124 229.281 301.228 232.189 301.436 235.06C302.084 244.141 303.751 252.887 306.293 261.151Z" fill="white"/>
<path d="M306.293 261.151L305.805 261.523C298.744 266.939 289.129 269.639 279.516 269.639V226.347H301.124C301.124 238.557 302.947 250.273 306.293 261.151Z" fill="#E0E9F0"/>
<path d="M301.436 235.06H257.595C257.804 232.189 257.908 229.281 257.908 226.347H301.121C301.121 226.985 301.127 227.624 301.139 228.26C301.144 228.775 301.157 229.295 301.175 229.809C301.168 229.835 301.175 229.859 301.175 229.884C301.187 230.317 301.197 230.751 301.223 231.179C301.24 231.703 301.263 232.223 301.293 232.743C301.293 232.817 301.299 232.887 301.304 232.961C301.34 233.661 301.381 234.363 301.436 235.06Z" fill="#85AFB3"/>
<path d="M313.012 278.015H246.017C248.669 272.676 250.928 267.04 252.737 261.151H306.291C308.101 267.04 310.359 272.676 313.012 278.015Z" fill="#85AFB3"/>
<path d="M313.012 278.015H279.516V261.151H306.291C308.101 267.04 310.359 272.676 313.012 278.015Z" fill="#407294"/>
<path d="M298.261 214.987L297.92 215.247C287.972 222.881 270.712 222.76 260.984 214.987C262.753 209.236 263.915 203.149 264.367 196.828C264.512 194.829 264.584 192.805 264.584 190.764H294.664C294.664 192.805 294.736 194.829 294.879 196.828C295.332 203.149 296.492 209.236 298.261 214.987Z" fill="white"/>
<path d="M298.261 214.987L297.92 215.247C293.007 219.017 286.313 220.896 279.623 220.896V190.764H294.664C294.664 199.261 295.932 207.417 298.261 214.987Z" fill="#E0E9F0"/>
<path d="M294.879 196.828H264.367C264.511 194.829 264.584 192.805 264.584 190.764H294.661C294.661 191.208 294.664 191.653 294.675 192.096C294.679 192.453 294.687 192.815 294.699 193.173C294.695 193.191 294.699 193.208 294.699 193.227C294.705 193.527 294.716 193.827 294.732 194.127C294.745 194.491 294.76 194.855 294.781 195.215C294.781 195.265 294.787 195.316 294.789 195.367C294.815 195.855 294.843 196.343 294.879 196.828Z" fill="#85AFB3"/>
<path d="M302.937 226.724H256.307C258.153 223.009 259.727 219.085 260.984 214.987H298.26C299.52 219.085 301.091 223.009 302.937 226.724Z" fill="#85AFB3"/>
<path d="M302.937 226.724H279.623V214.987H298.26C299.52 219.085 301.091 223.009 302.937 226.724Z" fill="#407294"/>
<path d="M293.673 182.179L293.423 182.367C286.147 187.952 273.521 187.863 266.407 182.179C267.699 177.969 268.548 173.517 268.879 168.893C268.985 167.433 269.039 165.953 269.039 164.457H291.04C291.04 165.953 291.092 167.433 291.199 168.893C291.529 173.517 292.377 177.969 293.673 182.179Z" fill="white"/>
<path d="M293.673 182.179L293.423 182.367C289.829 185.125 284.933 186.499 280.039 186.499V164.457H291.04C291.04 170.675 291.971 176.64 293.673 182.179Z" fill="#E0E9F0"/>
<path d="M291.199 168.893H268.879C268.984 167.433 269.039 165.953 269.039 164.457H291.04C291.04 164.783 291.043 165.108 291.049 165.432C291.052 165.693 291.059 165.959 291.068 166.22C291.065 166.235 291.068 166.245 291.068 166.259C291.073 166.479 291.079 166.699 291.089 166.919C291.099 167.185 291.111 167.449 291.127 167.715C291.127 167.752 291.129 167.787 291.133 167.825C291.149 168.183 291.171 168.539 291.199 168.893Z" fill="#85AFB3"/>
<path d="M297.093 190.764H262.983C264.336 188.045 265.485 185.176 266.407 182.179H293.673C294.593 185.176 295.744 188.045 297.093 190.764Z" fill="#85AFB3"/>
<path d="M297.093 190.764H280.039V182.179H293.673C294.593 185.176 295.744 188.045 297.093 190.764Z" fill="#407294"/>
<path d="M167.025 267.644L166.501 268.128C151.217 282.339 124.703 282.112 109.76 267.644C112.478 256.94 114.26 245.611 114.956 233.845C115.179 230.128 115.289 226.359 115.289 222.557H161.495C161.495 226.359 161.607 230.128 161.829 233.845C162.523 245.611 164.305 256.94 167.025 267.644Z" fill="white"/>
<path d="M167.025 267.644L166.501 268.128C155.075 278.751 137.372 281.308 122.919 275.875C125.442 259.537 126.842 241.507 126.842 222.557H161.495C161.495 238.375 163.445 253.556 167.025 267.644Z" fill="#EEF9F8"/>
<path d="M167.025 267.644L166.501 268.128C158.952 275.147 148.672 278.644 138.392 278.644V222.557H161.495C161.495 238.375 163.445 253.556 167.025 267.644Z" fill="#E0E9F0"/>
<path class="reda r-2" d="M161.828 233.845H114.956C115.175 230.127 115.291 226.36 115.291 222.557H161.493C161.493 223.383 161.5 224.212 161.513 225.036C161.519 225.703 161.531 226.376 161.551 227.044C161.544 227.076 161.551 227.108 161.551 227.14C161.563 227.701 161.576 228.263 161.601 228.819C161.62 229.496 161.645 230.169 161.677 230.843C161.677 230.939 161.683 231.031 161.691 231.127C161.728 232.033 161.772 232.941 161.828 233.845Z" fill="#407294"/>
<path class="reda r-2" d="M161.828 233.845H126.67C126.785 230.127 126.841 226.36 126.841 222.557H161.493C161.493 223.383 161.5 224.212 161.513 225.036C161.519 225.709 161.531 226.376 161.551 227.044C161.544 227.076 161.551 227.108 161.551 227.14C161.563 227.701 161.576 228.263 161.601 228.819C161.62 229.496 161.645 230.169 161.677 230.843C161.677 230.939 161.683 231.031 161.691 231.127C161.728 232.033 161.772 232.941 161.828 233.845Z" fill="#1C375C"/>
<path class="reda r-2" d="M161.828 233.845H138.392V222.557H161.493C161.493 226.36 161.608 230.127 161.828 233.845Z" fill="#1C375C"/>
<path d="M174.208 289.492H102.577C105.414 282.577 107.827 275.273 109.76 267.644H167.024C168.957 275.273 171.369 282.577 174.208 289.492Z" fill="#85AFB3"/>
<path d="M174.208 289.492H120.484C121.906 282.577 123.107 275.269 124.081 267.644H167.025C168.957 275.273 171.369 282.577 174.208 289.492Z" fill="#85AFB3"/>
<path d="M174.208 289.492H138.392V267.644H167.024C168.957 275.273 171.369 282.577 174.208 289.492Z" fill="#407294"/>
<path d="M245.36 267.644C229.092 280.057 204.361 280.057 188.095 267.644C189.287 262.965 190.295 258.164 191.115 253.26C192.164 246.951 192.903 240.467 193.291 233.845C193.515 230.128 193.628 226.359 193.628 222.557H239.833C239.833 223.02 239.833 223.484 239.836 223.948C239.861 227.28 239.972 230.581 240.164 233.845C240.863 245.611 242.641 256.94 245.36 267.644Z" fill="white"/>
<path d="M245.36 267.644C233.113 276.987 216.072 279.297 201.456 274.573C202.68 266.403 203.625 257.823 204.253 248.923C204.863 240.399 205.177 231.581 205.177 222.557H239.833C239.833 223.02 239.833 223.481 239.839 223.941V223.945C239.948 239.267 241.884 253.968 245.36 267.644Z" fill="#EEF9F8"/>
<path d="M245.36 267.644C237.229 273.852 226.975 276.953 216.728 276.953V222.557H239.833C239.833 223.02 239.833 223.484 239.839 223.945C239.948 239.267 241.884 253.968 245.36 267.644Z" fill="#E0E9F0"/>
<path class="reda r-2" d="M240.165 233.845H193.292C193.515 230.127 193.627 226.36 193.627 222.557H239.831C239.831 223.383 239.839 224.212 239.852 225.036C239.857 225.703 239.869 226.376 239.888 227.044C239.881 227.076 239.888 227.108 239.888 227.14C239.901 227.701 239.915 228.263 239.937 228.819C239.959 229.496 239.981 230.169 240.012 230.843C240.012 230.939 240.02 231.031 240.027 231.127C240.064 232.033 240.108 232.941 240.165 233.845Z" fill="#407294"/>
<path class="reda r-2" d="M240.165 233.845H205.008C205.121 230.127 205.177 226.36 205.177 222.557H239.831C239.831 223.383 239.839 224.212 239.852 225.036C239.857 225.709 239.869 226.376 239.888 227.044C239.881 227.076 239.888 227.108 239.888 227.14C239.901 227.701 239.915 228.263 239.937 228.819C239.959 229.496 239.981 230.169 240.012 230.843C240.012 230.939 240.02 231.031 240.027 231.127C240.064 232.033 240.108 232.941 240.165 233.845Z" fill="#1C375C"/>
<path class="reda r-2" d="M240.165 233.845H216.729V222.557H239.831C239.832 226.36 239.945 230.127 240.165 233.845Z" fill="#1C375C"/>
<path d="M251.267 286.273C251.164 286.487 251.059 286.699 250.956 286.913C250.528 287.779 250.087 288.637 249.624 289.491H180.915C183.751 282.577 186.164 275.275 188.095 267.644H245.36C246.999 274.104 248.979 280.323 251.267 286.273Z" fill="#85AFB3"/>
<path d="M251.267 286.273C251.164 286.487 251.059 286.699 250.956 286.913C250.528 287.779 250.087 288.637 249.624 289.491H198.824C200.243 282.577 201.444 275.269 202.416 267.644H245.36C246.999 274.104 248.979 280.323 251.267 286.273Z" fill="#85AFB3"/>
<path d="M251.267 286.273C251.164 286.487 251.059 286.699 250.956 286.913C250.528 287.779 250.087 288.637 249.624 289.491H216.728V267.644H245.36C246.999 274.104 248.979 280.323 251.267 286.273Z" fill="#407294"/>
<path d="M114.956 289.396H76.8489C65.5469 289.492 66.6989 282.485 72.9427 280.877C73.764 280.843 74.5989 280.984 75.3297 281.313C75.1849 279.116 77.2823 277.404 79.8349 276.961C82.3855 276.517 85.2041 277.847 86.0964 279.912C86.9047 278.225 89.4088 277.465 91.5494 277.623C93.6937 277.78 95.6188 279.216 96.0677 280.993C97.4167 279.464 100.042 279.151 102.145 279.847C104.25 280.54 105.663 282.497 105.43 284.399C106.841 282.837 109.963 283.051 111.775 284.279C113.587 285.508 114.427 287.481 114.956 289.396Z" fill="#47A0AF"/>
<path d="M253.988 279.812C256.536 279.737 260.443 286.253 250.956 286.913H219.647C220.092 285.3 220.8 283.64 222.325 282.603C223.856 281.568 226.484 281.389 227.673 282.701C227.477 281.104 228.667 279.452 230.44 278.868C232.212 278.285 234.425 278.545 235.56 279.837C235.939 278.339 237.56 277.128 239.364 276.996C241.169 276.861 243.28 277.505 243.957 278.924C244.713 277.183 247.087 276.067 249.24 276.437C251.388 276.812 253.153 278.253 253.031 280.105C253.332 279.971 253.655 279.875 253.988 279.812Z" fill="#47A0AF"/>
<path d="M707.963 401.015H580.732C554.279 401.015 532.752 379.463 532.752 352.971C532.752 329.107 513.365 309.691 489.533 309.691H0V286.253H489.533C526.269 286.253 556.159 316.183 556.159 352.971C556.159 366.539 567.183 377.577 580.732 377.577H707.963V401.015Z" fill="#1C375C"/>
<path d="M58.6547 518.515H39.3474V298.808H58.6547V518.515Z" fill="#1C375C"/>
<path d="M196.008 451.225H176.7V298.808H196.008V451.225Z" fill="#1C375C"/>
<path d="M314.053 412.656H333.363V298.808H314.053V412.656Z" fill="#1C375C"/>
<path d="M470.716 402.512H451.409V298.808H470.716V402.512Z" fill="#1C375C"/>
<path d="M558.657 411.783C551.56 411.783 545.788 406.001 545.788 398.895C545.788 355.645 510.648 320.46 467.457 320.46H0V367.335H467.457C484.837 367.335 498.976 381.493 498.976 398.895C498.976 431.848 525.751 458.659 558.657 458.659H697.588V411.783H558.657Z" fill="#407294"/>
<path d="M560.699 423.501C547.149 423.501 536.127 412.465 536.127 398.895C536.127 362.108 506.237 332.179 469.501 332.179H0V338.079H462.121C498.86 338.079 528.749 368.007 528.749 404.796C528.749 418.364 539.772 429.403 553.321 429.403H680.552V446.939H687.929V423.501H560.699Z" fill="#85AFB3"/>
<path class="building b-left" d="M416.892 526.723H320.783V298.163H416.892V526.723Z" fill="#E0E9F0"/>
<path class="building b-right" d="M416.892 526.723H376.423V298.163H416.892V526.723Z" fill="#85AFB3"/>
<path class="building b-right" d="M464.945 526.723H405.929V365.28H464.945V526.723Z" fill="#85AFB3"/>
<path class="building b-right" d="M567.799 526.723H481.807V322.653H567.799V526.723Z" fill="#85AFB3"/>
<path class="building b-left" d="M538.289 526.723H481.807V322.653H538.289V526.723Z" fill="#E0E9F0"/>
<path class="reda r-1" d="M405.929 365.28V526.723H416.892V365.28H405.929Z" fill="#1C375C"/>
<path d="M510.469 380.275H481.807V368.484H510.469V380.275Z" fill="#85AFB3"/>
<path d="M510.469 407.213H481.807V395.421H510.469V407.213Z" fill="#85AFB3"/>
<path d="M510.469 434.153H481.807V422.361H510.469V434.153Z" fill="#85AFB3"/>
<path d="M510.469 461.088H481.807V449.299H510.469V461.088Z" fill="#F0AB0E"/>
<path d="M510.469 353.337H481.807V341.548H510.469V353.337Z" fill="#85AFB3"/>
<path d="M510.469 488.025H481.807V476.236H510.469V488.025Z" fill="#F0AB0E"/>
<path d="M349.445 379.7H320.783V367.911H349.445V379.7Z" fill="#85AFB3"/>
<path d="M349.445 406.637H320.783V394.845H349.445V406.637Z" fill="#85AFB3"/>
<path d="M349.445 352.763H320.783V340.972H349.445V352.763Z" fill="#85AFB3"/>
<path d="M349.445 487.449H320.783V475.66H349.445V487.449Z" fill="#85AFB3"/>
<path class="reda r-1" d="M445.555 407.213H416.892V395.421H445.555V407.213Z" fill="#1C375C"/>
<path class="reda r-1" d="M445.555 434.153H416.892V422.361H445.555V434.153Z" fill="#1C375C"/>
<path d="M593.492 504.66C593.492 504.66 571.936 453.908 466.157 453.908C402.169 453.908 349.076 475.864 338.925 504.66C341.495 502.867 344.124 501.124 346.843 499.449L344.98 500.889V529.249H590.936V501.843C592.605 503.531 593.492 504.66 593.492 504.66Z" fill="#1E2328"/>
<path d="M510.412 444.403H424.695V458.387H510.412V444.403Z" fill="#47A0AF"/>
<path d="M590.936 529.249H344.98V500.889H590.936V529.249Z" fill="#1C375C"/>
<path d="M414.735 479.285C450.145 476.7 506.544 487.301 520.433 504.66C524.196 491.58 528.94 482.096 550.123 482.413C568.46 482.687 593.492 504.66 593.492 504.66C593.492 504.66 575.021 453.908 466.157 453.908C380.983 453.908 349.076 475.864 338.925 504.66C357.021 492.017 377.847 481.979 414.735 479.285Z" fill="#47A0AF"/>
<path d="M519.332 503.717C514.404 483.455 486.597 460.648 465.968 454.547L466.345 453.268C487.315 459.471 515.593 482.72 520.624 503.403L519.332 503.717Z" fill="#1E2328"/>
<path d="M717.189 84.1867C718.691 81.9227 719.195 79.9667 718.369 78.7934C716.623 76.3027 709.533 78.2414 702.4 83.112C698.417 79.1187 685.08 83.0867 671.861 92.348C661.201 99.8134 653.752 108.524 652.531 114.291C644.149 120.215 638.771 127.251 639.657 130.861C629.959 137.697 624.044 145.957 626.431 149.356C628.832 152.773 638.713 149.987 648.503 143.129C656.183 137.751 661.519 131.469 662.308 127.361C666.187 127.624 672.945 124.836 679.276 120.209C685.561 122.085 699.68 116.009 711.197 106.396C722.941 96.5934 727.527 86.8294 721.436 84.5934C720.292 84.1707 718.852 84.048 717.189 84.1867Z" fill="#DCF2ED"/>
<path d="M495.724 95.5534C493.492 90.224 487.243 87.5467 481.425 89.552C476.735 91.1693 473.704 95.3587 473.515 99.84C469.488 101.279 467.309 105.531 468.643 109.384C469.985 113.265 474.383 115.272 478.467 113.864L499.341 106.665C502.547 105.56 504.292 102.191 503.24 99.14C502.204 96.1534 498.872 94.5814 495.724 95.5534Z" fill="#DCF2ED"/>
<path d="M470.2 52.2853C471.553 50.72 472.143 49.0333 471.668 47.5427C470.661 44.3813 465.245 43.2653 459.467 44.98C456.989 39.412 446.759 37.6227 436.029 41.0293C427.375 43.7747 420.94 49.092 419.401 54.1814C412.589 56.392 407.861 60.956 408.108 64.8427C400.232 67.384 394.972 72.9093 396.344 77.2267C397.728 81.564 405.287 83.0387 413.235 80.516C419.469 78.5387 424.084 74.6907 425.123 71.0293C427.939 72.9267 433.208 73.0774 438.367 71.2587C442.772 75.744 453.809 75.8133 463.331 71.3427C473.04 66.784 477.493 59.2334 473.272 54.4787C472.479 53.5854 471.436 52.8533 470.2 52.2853Z" fill="#DCF2ED"/>
<path d="M624.916 54.66C627.187 52.3427 628.239 49.908 627.576 47.816C626.161 43.3813 617.543 42.1373 608.163 44.9493C604.544 37.1827 588.245 35.2933 570.807 40.8293C556.747 45.2907 546.079 53.268 543.283 60.6107C532.212 64.1933 524.329 70.9907 524.48 76.508C511.676 80.6267 502.877 88.828 504.805 94.884C506.745 100.971 518.785 102.583 531.696 98.484C541.824 95.2694 549.48 89.4987 551.379 84.2227C555.776 86.7414 564.22 86.6186 572.617 83.7C579.397 89.8013 597.101 89.1947 612.667 82.2213C628.54 75.112 636.168 64.08 629.7 57.584C628.488 56.3627 626.861 55.3893 624.916 54.66Z" fill="#DCF2ED"/>
<path d="M563.607 50.6334C564.959 49.0667 565.549 47.3814 565.076 45.8907C564.069 42.7307 558.652 41.612 552.873 43.328C550.396 37.7587 540.167 35.9707 529.435 39.3774C520.783 42.124 514.347 47.4401 512.808 52.5294C505.999 54.7414 501.268 59.3054 501.517 63.1921C493.639 65.7307 488.376 71.2574 489.752 75.5747C491.133 79.9134 498.695 81.3867 506.64 78.864C512.873 76.8867 517.489 73.0387 518.528 69.3787C521.344 71.2747 526.613 71.4254 531.775 69.608C536.179 74.0934 547.215 74.1627 556.736 69.6907C566.449 65.1334 570.899 57.5814 566.677 52.8267C565.887 51.9334 564.841 51.2027 563.607 50.6334Z" fill="#DCF2ED"/>
<path d="M755.119 34.4653C774.277 34.4653 789.805 50.0173 789.805 69.1987C789.805 88.3813 774.277 103.932 755.119 103.932C735.967 103.932 720.435 88.3813 720.435 69.1987C720.435 50.0173 735.967 34.4653 755.119 34.4653Z" fill="#C7E9EF"/>
<path d="M745.816 88.5653L747.292 103.564L755.119 90.6707L762.949 103.564L764.424 88.5653L777.076 96.7653L771.893 82.5826L786.828 84.4933L776.037 73.992L790.336 69.1987L776.037 64.408L786.828 53.9067L771.893 55.8173L777.076 41.6333L764.424 49.8347L762.949 34.836L755.121 47.7293L747.295 34.836L745.819 49.8347L733.165 41.6333L738.351 55.8173L723.416 53.9067L734.203 64.408L719.905 69.1987L734.203 73.992L723.416 84.492L738.348 82.5826L733.165 96.7653L745.816 88.5653ZM767.812 124.933L755.121 104.031L742.428 124.933L740.032 100.583L719.535 113.867L727.924 90.912L703.688 94.012L721.209 76.9573L698.068 69.1987L721.212 61.4413L703.688 44.3853L727.924 47.4867L719.535 24.5306L740.035 37.8173L742.428 13.4653L755.121 34.368L767.812 13.4653L770.207 37.8173L790.708 24.5333L782.319 47.4867L806.556 44.3867L789.031 61.4413L812.173 69.1987L789.031 76.9573L806.556 94.0147L782.319 90.912L790.705 113.869L770.207 100.583L767.812 124.933Z" fill="#C7E9EF"/>
<path class="sun" d="M755.119 34.4655C774.277 34.4655 789.805 50.0175 789.805 69.1988C789.805 88.3815 774.277 103.932 755.119 103.932C735.967 103.932 720.435 88.3815 720.435 69.1988C720.435 50.0175 735.967 34.4655 755.119 34.4655Z" fill="#EFB73A"/>
<path class="sun" d="M745.816 88.5656L747.292 103.564L755.119 90.671L762.949 103.564L764.424 88.5656L777.076 96.7656L771.893 82.5829L786.828 84.4936L776.037 73.9923L790.336 69.199L776.037 64.4083L786.828 53.907L771.893 55.8176L777.076 41.6336L764.424 49.835L762.949 34.8363L755.121 47.7296L747.295 34.8363L745.819 49.835L733.165 41.6336L738.351 55.8176L723.416 53.907L734.203 64.4083L719.905 69.199L734.203 73.9923L723.416 84.4923L738.348 82.5829L733.165 96.7656L745.816 88.5656ZM767.812 124.934L755.121 104.031L742.428 124.934L740.032 100.583L719.535 113.867L727.924 90.9123L703.688 94.0123L721.209 76.9576L698.068 69.199L721.212 61.4416L703.688 44.3856L727.924 47.487L719.535 24.5309L740.035 37.8176L742.428 13.4656L755.121 34.3683L767.812 13.4656L770.207 37.8176L790.708 24.5336L782.319 47.487L806.556 44.387L789.031 61.4416L812.173 69.199L789.031 76.9576L806.556 94.015L782.319 90.9123L790.705 113.87L770.207 100.583L767.812 124.934Z" fill="#FAEC69"/>
<path class="sun" d="M755.119 46.4294C767.68 46.4294 777.861 56.624 777.861 69.2C777.861 81.776 767.68 91.9707 755.119 91.9707C742.564 91.9707 732.381 81.776 732.381 69.2C732.381 56.624 742.564 46.4294 755.119 46.4294Z" fill="#EFB73A"/>
<path d="M791.747 541.441H702.087V274.671H791.747V541.441Z" fill="#47A0AF"/>
<path d="M681.139 541.441H622.125V256.944H681.139V541.441Z" fill="#85AFB3"/>
<path d="M783.148 486.567H656.268V274.671H783.148V486.567Z" fill="#E0E9F0"/>
<path d="M705.693 486.567H656.268V274.671H705.693V486.567Z" fill="#47A0AF"/>
<path d="M827.717 541.441H656.268V486.567H827.717V541.441Z" fill="#1C375C"/>
<path d="M827.717 499.231H656.268V490.577H827.717V499.231Z" fill="#47A0AF"/>
<path d="M753.941 514.216H705.993V490.577H753.941V514.216Z" fill="#1E2328"/>
<path d="M771.224 267.812H688.711V274.671H771.224V267.812Z" fill="#1E2328"/>
<path d="M763.651 267.812L729.967 234.081L696.287 267.812H763.651Z" stroke="#1E2328" stroke-width="2.66667" stroke-miterlimit="10"/>
<path d="M658.624 479.815H656.268V274.671H658.624V479.815Z" fill="white"/>
<path d="M670.157 447.312H667.803V274.671H670.157V447.312Z" fill="white"/>
<path d="M681.689 370.067H679.332V274.671H681.689V370.067Z" fill="white"/>
<path d="M712.872 441.82H711.753V274.671H712.872V441.82Z" fill="#47A0AF"/>
<path d="M724.756 469.252H723.639V274.671H724.756V469.252Z" fill="#47A0AF"/>
<path d="M735.527 281.3V274.671H736.641V479.815H735.527V281.3Z" fill="#47A0AF"/>
<path d="M760.415 387.679H759.296V274.671H760.415V387.679Z" fill="#47A0AF"/>
<path d="M772.299 453.369H771.183V274.671H772.299V453.369Z" fill="#47A0AF"/>
<path d="M748.528 434.601H747.412V274.671H748.528V434.601Z" fill="#47A0AF"/>
<path d="M763.231 446.807V447.924H724.213V446.807H763.231Z" fill="#47A0AF"/>
<path d="M783.148 291.4H716.124V292.519H783.148V291.4Z" fill="#47A0AF"/>
<path d="M783.148 317.301H708.035V318.42H783.148V317.301Z" fill="#47A0AF"/>
<path d="M727.539 344.32H783.148V343.201H727.539V344.32Z" fill="#47A0AF"/>
<path d="M783.148 369.104H706.803V370.22H783.148V369.104Z" fill="#47A0AF"/>
<path d="M740.009 395.004V396.121H783.148V395.004H740.009Z" fill="#47A0AF"/>
<path d="M736.977 422.023H783.148V420.905H736.977V422.023Z" fill="#47A0AF"/>
<path d="M716.124 473.825H783.148V472.708H716.124V473.825Z" fill="#47A0AF"/>
<path d="M707.172 486.567H704.815V274.671H707.172V486.567Z" fill="#1E2328"/>
<path d="M755.121 486.567H752.763V274.671H755.121V486.567Z" fill="#1E2328"/>
<path d="M736.079 164.289H723.857V267.812H736.079V164.289Z" stroke="#1E2328" stroke-width="2.66667" stroke-miterlimit="10"/>
<path d="M733.656 161.9H726.279V150.784H733.656V161.9Z" stroke="#1E2328" stroke-width="2.66667" stroke-miterlimit="10"/>
<path d="M731.424 150.784H728.513V92.7413H731.424V150.784Z" stroke="#1E2328" stroke-width="2.66667" stroke-miterlimit="10"/>
<path d="M736.079 164.289L724.2 178.008" stroke="#1E2328" stroke-width="2.66667" stroke-miterlimit="10"/>
<path d="M724.2 178.008L736.079 189.827" stroke="#1E2328" stroke-width="2.66667" stroke-miterlimit="10"/>
<path d="M736.079 189.827L724.2 197.847" stroke="#1E2328" stroke-width="2.66667" stroke-miterlimit="10"/>
<path d="M724.2 197.847L736.079 209.665" stroke="#1E2328" stroke-width="2.66667" stroke-miterlimit="10"/>
<path d="M736.079 209.665L724.2 220.22" stroke="#1E2328" stroke-width="2.66667" stroke-miterlimit="10"/>
<path d="M724.2 220.22L735.527 227.817" stroke="#1E2328" stroke-width="2.66667" stroke-miterlimit="10"/>
<path d="M735.527 227.817L729.967 234.081" stroke="#1E2328" stroke-width="2.66667" stroke-miterlimit="10"/>
<path d="M723.857 267.812L710.423 253.656" stroke="#1E2328" stroke-width="2.66667" stroke-miterlimit="10"/>
<path d="M736.641 265.807L749.515 253.656" stroke="#1E2328" stroke-width="2.66667" stroke-miterlimit="10"/>
<path d="M749.515 253.656L749.637 267.812" stroke="#1E2328" stroke-width="2.66667" stroke-miterlimit="10"/>
<path d="M710.423 253.656V267.812" stroke="#1E2328" stroke-width="2.66667" stroke-miterlimit="10"/>
<path d="M711.753 253.656H723.639" stroke="#1E2328" stroke-width="2.66667" stroke-miterlimit="10"/>
<path d="M736.079 253.656H747.971" stroke="#1E2328" stroke-width="2.66667" stroke-miterlimit="10"/>
<path d="M724.2 242.38H735.527" stroke="#1E2328" stroke-width="2.66667" stroke-miterlimit="10"/>
<path d="M724.2 247.273H735.527" stroke="#1E2328" stroke-width="2.66667" stroke-miterlimit="10"/>
<path d="M724.756 252.168H736.079" stroke="#1E2328" stroke-width="2.66667" stroke-miterlimit="10"/>
<path d="M724.2 257.061H736.085" stroke="#1E2328" stroke-width="2.66667" stroke-miterlimit="10"/>
<path d="M724.2 261.955H736.079" stroke="#1E2328" stroke-width="2.66667" stroke-miterlimit="10"/>
<path d="M827.717 490.577H656.268V486.567H827.717V490.577Z" fill="#1E2328"/>
<path d="M540.141 219.729H531.24V218.851L531.237 216.091V214.859L532.4 215.259L540.424 218.019L545.397 219.729H540.141ZM531.571 235.079L532.083 236.747L536.313 250.553L536.661 251.691H535.473H534.477H534.032L533.769 251.333L527.073 242.232L526.692 241.711L527.073 241.189L530.537 236.484L531.571 235.079ZM525.581 264.517L513.657 254.489L513.951 253.931L537.305 253.925L537.515 254.483L525.581 264.517ZM543.452 273.835L543.801 274.971H538.015L537.769 274.764L527.9 266.467L527.099 265.795L527.9 265.121L537.125 257.361L538.139 256.508L538.528 257.777L543.452 273.835ZM532.569 274.971H516.188L518.033 273.419L525.02 267.543L525.584 267.069L526.147 267.543L533.133 273.419L534.979 274.971H532.569ZM513.152 274.971H507.363L507.712 273.835L512.636 257.777L513.023 256.509L514.036 257.361L523.263 265.121L524.065 265.795L523.263 266.467L513.397 274.764L513.152 274.971ZM514.848 250.555L519.083 236.747L519.593 235.077L520.629 236.484L524.091 241.191L524.472 241.712L524.091 242.233L517.392 251.335L517.129 251.692H516.687H515.688H514.5L514.848 250.555ZM519.048 219.729H505.764L510.737 218.019L518.761 215.259L519.924 214.859V216.089V218.851V219.729H519.048ZM519.048 203.748H509.54L512.977 202.079L518.665 199.317L519.924 198.705V200.108V202.869V203.748H519.048ZM519.089 187.808H511.455L514.115 186.179L518.632 183.417L519.967 182.6V184.167V186.929V187.808H519.089ZM526.291 244.18L530.787 250.292L531.819 251.692H519.348L520.376 250.292L524.879 244.18L525.584 243.22L526.291 244.18ZM520.373 232.529L520.972 230.575L521.165 229.955H529.996L530.187 230.575L530.787 232.529L530.917 232.953L530.655 233.309L526.288 239.245L525.581 240.208L524.873 239.245L520.504 233.308L520.245 232.952L520.373 232.529ZM521.435 226.839V221.967H529.727V227.717H528.849H522.313H521.435V226.839ZM521.435 218.851V213.975H529.727V219.729H528.849H522.313H521.435V218.851ZM521.435 210.859V205.985H529.727V211.739H528.849H522.313H521.435V210.859ZM521.435 202.869V197.993H529.727V203.748H528.849H522.313H521.435V202.869ZM521.435 194.88V190.004H529.727V195.759H528.849H522.313H521.435V194.88ZM521.476 186.929V182.053H529.768V187.808H528.888H522.356H521.476V186.929ZM522.241 178.68L524.785 170.383L525.625 167.645L526.463 170.383L529.005 178.68L529.355 179.816H528.168H523.083H521.893L522.241 178.68ZM531.24 202.869V198.705L532.501 199.317L538.184 202.079L541.619 203.748H537.801H532.116H531.24V202.869ZM531.24 186.888V182.559L532.575 183.376L537.088 186.137L539.749 187.768H536.631H532.116H531.24V186.888ZM550.897 219.849L531.799 212.444L531.24 212.227V205.987H532.116H545.888C546.219 205.987 546.527 205.639 546.617 205.16C546.719 204.635 546.533 204.076 546.185 203.845L531.717 196.423L531.24 196.179V195.641V190.883V190.004H532.116H543.545C543.876 190.004 544.183 189.656 544.276 189.176C544.38 188.639 544.185 188.069 543.821 187.848L531.331 180.209L531.047 180.035L530.948 179.717L526.272 164.468C526.149 164.069 525.867 163.791 525.581 163.791C525.297 163.791 525.015 164.071 524.892 164.468L520.216 179.715L520.12 180.032L519.836 180.207L507.343 187.848C506.981 188.069 506.784 188.64 506.888 189.176C506.979 189.647 507.293 190.004 507.619 190.004H519.048H519.924V190.883V195.64V196.177L519.448 196.423L504.981 203.843C504.633 204.075 504.448 204.633 504.549 205.156C504.64 205.629 504.953 205.985 505.277 205.985H519.048H519.924V206.864V211.621V212.223L519.364 212.44L500.269 219.845C499.941 220.089 499.769 220.631 499.868 221.137C499.963 221.617 500.267 221.967 500.596 221.967H519.048H519.924V222.845V228.473V228.605L519.885 228.731L505.861 274.477L505.715 274.957L505.231 275.076C504.181 275.332 503.26 276.115 502.664 277.207H548.5C547.904 276.112 546.98 275.329 545.929 275.073L545.447 274.957L545.301 274.477L531.276 228.733L531.237 228.607V228.475V222.847V221.968H532.116H550.568C550.897 221.968 551.204 221.62 551.299 221.141C551.397 220.631 551.225 220.089 550.897 219.849Z" fill="#1E2328"/>
<path d="M508.883 194.917C508.883 195.787 508.18 196.492 507.311 196.492C506.443 196.492 505.739 195.787 505.739 194.917V190.72C505.739 189.851 506.443 189.145 507.311 189.145C508.18 189.145 508.883 189.851 508.883 190.72V194.917Z" fill="#1E2328"/>
<path d="M544.891 194.917C544.891 195.787 544.185 196.492 543.316 196.492C542.448 196.492 541.747 195.787 541.747 194.917V190.72C541.747 189.851 542.448 189.145 543.316 189.145C544.185 189.145 544.891 189.851 544.891 190.72V194.917Z" fill="#1E2328"/>
<path d="M501.413 227.079C501.413 227.948 500.708 228.653 499.84 228.653C498.972 228.653 498.269 227.948 498.269 227.079V222.881C498.269 222.012 498.972 221.307 499.84 221.307C500.708 221.307 501.413 222.012 501.413 222.881V227.079Z" fill="#1E2328"/>
<path d="M552.375 227.079C552.375 227.948 551.672 228.653 550.804 228.653C549.935 228.653 549.231 227.948 549.231 227.079V222.881C549.231 222.012 549.935 221.307 550.804 221.307C551.672 221.307 552.375 222.012 552.375 222.881V227.079Z" fill="#1E2328"/>
<path d="M506.409 211.036C506.409 211.905 505.707 212.611 504.839 212.611C503.971 212.611 503.265 211.905 503.265 211.036V206.839C503.265 205.968 503.971 205.264 504.839 205.264C505.707 205.264 506.409 205.968 506.409 206.839V211.036Z" fill="#1E2328"/>
<path d="M548.033 211.036C548.033 211.905 547.329 212.611 546.461 212.611C545.595 212.611 544.891 211.905 544.891 211.036V206.839C544.891 205.968 545.595 205.264 546.461 205.264C547.329 205.264 548.033 205.968 548.033 206.839V211.036Z" fill="#1E2328"/>
<path d="M310.953 440.056L332.257 529.049H310.953V440.056Z" fill="#47A0AF"/>
<path d="M310.953 440.26L289.645 529.249H310.953V440.26Z" fill="#E0E9F0"/>
<path d="M310.953 440.26L309.776 445.173V460.327H306.148L305.565 462.755H309.776V468.135H304.279L303.696 470.561H309.776V475.944H302.409L301.828 478.369H309.776V483.752H300.539L299.959 486.179H309.776V491.559H298.671L298.088 493.987H309.776V499.367H296.801L296.219 501.793H309.776V507.173H294.931L294.351 509.601H309.776V514.984H293.061L292.48 517.408H309.776V529.249H312.149V445.265L310.953 440.26Z" fill="#1C375C"/>
<path d="M284.697 459.236L301.424 529.093H284.697V459.236Z" fill="#47A0AF"/>
<path d="M284.697 459.395L267.973 529.249H284.697V459.395Z" fill="#E0E9F0"/>
<path d="M284.697 459.395L283.775 463.255V475.148H280.927L280.472 477.053H283.775V481.275H279.461L279.003 483.184H283.775V487.405H277.991L277.536 489.309H283.775V493.533H276.525L276.069 495.439H283.775V499.663H275.057L274.603 501.569H283.775V505.793H273.591L273.135 507.697H283.775V511.924H272.124L271.668 513.827H283.775V518.051H270.656L270.2 519.955H283.775V529.249H285.639V463.323L284.697 459.395Z" fill="#1C375C"/>
<path d="M604.319 532.108L608.009 497.08H615.387L619.075 532.108" fill="#1E2328"/>
<path class="light l-t-2" d="M606.239 415.919L608.969 426.851H614.427L617.155 415.919H606.239Z" fill="#E0E9F0"/>
<path class="light l-t-2" d="M623.979 425.484L626.709 436.413H632.168L634.896 425.484H623.979Z" fill="#E0E9F0"/>
<path class="light l-t-2" d="M588.499 425.484L591.228 436.413H596.687L599.415 425.484H588.499Z" fill="#E0E9F0"/>
<path d="M609.853 426.851H613.543V497.08H609.853V426.851Z" fill="#1E2328"/>
<path d="M628.073 436.413V438.588C628.073 439.651 627.212 440.512 626.148 440.512C625.377 440.512 624.681 440.053 624.38 439.345L622.245 434.361C621.359 432.288 619.332 430.949 617.08 430.949C615.967 430.949 614.891 431.275 613.963 431.895L612.7 432.736C612.328 432.987 611.988 433.28 611.696 433.604C611.403 433.277 611.068 432.987 610.693 432.736L609.431 431.895C608.505 431.275 607.428 430.949 606.313 430.949C604.064 430.949 602.035 432.288 601.148 434.361L599.016 439.345C598.712 440.056 598.017 440.515 597.245 440.515C596.184 440.515 595.32 439.651 595.32 438.588V436.413H592.592V438.588C592.592 441.159 594.679 443.247 597.245 443.247C599.112 443.247 600.789 442.137 601.524 440.421L603.657 435.437C604.113 434.372 605.159 433.681 606.313 433.681C606.885 433.681 607.441 433.851 607.917 434.168L609.18 435.009C609.9 435.492 610.331 436.299 610.333 437.163V437.168V437.171C610.331 437.981 609.944 438.755 609.296 439.244L605.419 442.156L607.055 444.343L610.932 441.429C611.217 441.216 611.463 440.963 611.696 440.7C611.928 440.963 612.175 441.216 612.461 441.432L616.336 444.343L617.973 442.153L614.099 439.244C613.449 438.755 613.063 437.981 613.063 437.168V437.165C613.063 437.163 613.063 437.163 613.063 437.163C613.063 436.296 613.493 435.492 614.216 435.009L615.475 434.165C615.951 433.848 616.505 433.681 617.08 433.681C618.237 433.681 619.28 434.369 619.735 435.435L621.869 440.421C622.603 442.137 624.287 443.244 626.148 443.244C628.712 443.244 630.801 441.156 630.801 438.585V436.413H628.073Z" fill="#1E2328"/>
<path d="M618.796 411.539C617.736 411.539 616.852 412.299 616.653 413.301L613.428 408.271C613.715 407.903 613.881 407.441 613.881 406.939C613.881 405.731 612.904 404.752 611.696 404.752C610.489 404.752 609.512 405.731 609.512 406.939C609.512 407.441 609.684 407.903 609.965 408.271L606.929 412.872C606.593 412.091 605.821 411.539 604.919 411.539C603.709 411.539 602.732 412.52 602.732 413.728C602.732 414.939 603.709 415.919 604.917 415.919H618.331L618.292 415.856C618.453 415.895 618.623 415.919 618.796 415.919C620.003 415.919 620.98 414.939 620.98 413.728C620.98 412.52 620.003 411.539 618.796 411.539Z" fill="#1E2328"/>
<path d="M600.896 421.105C599.835 421.105 598.951 421.864 598.753 422.867L595.528 417.837C595.812 417.468 595.984 417.007 595.984 416.507C595.984 415.296 595.004 414.317 593.797 414.317C592.589 414.317 591.612 415.296 591.612 416.507C591.612 417.007 591.781 417.468 592.065 417.837L589.028 422.437C588.695 421.653 587.921 421.105 587.017 421.105C585.809 421.105 584.832 422.085 584.832 423.296C584.832 424.501 585.809 425.484 587.017 425.484H600.431L600.389 425.421C600.553 425.46 600.721 425.484 600.896 425.484C602.103 425.484 603.081 424.501 603.081 423.296C603.081 422.085 602.103 421.105 600.896 421.105Z" fill="#1E2328"/>
<path d="M636.379 421.105C635.315 421.105 634.433 421.864 634.233 422.867L631.011 417.837C631.295 417.468 631.464 417.007 631.464 416.507C631.464 415.296 630.485 414.317 629.279 414.317C628.073 414.317 627.092 415.296 627.092 416.507C627.092 417.007 627.263 417.468 627.547 417.837L624.509 422.437C624.177 421.653 623.403 421.105 622.5 421.105C621.293 421.105 620.315 422.085 620.315 423.296C620.315 424.501 621.293 425.484 622.5 425.484H635.911L635.871 425.421C636.035 425.46 636.204 425.484 636.379 425.484C637.584 425.484 638.564 424.501 638.564 423.296C638.564 422.085 637.584 421.105 636.379 421.105Z" fill="#1E2328"/>
<path d="M416.813 543.84H223.239V565.053C223.239 567.596 225.296 569.656 227.832 569.656H235.005C250.192 569.656 262.5 581.981 262.5 597.187V613.939H285.515V597.187C285.515 581.981 297.825 569.656 313.011 569.656H327.492C342.679 569.656 354.987 581.981 354.987 597.187V613.939H377.552V597.187C377.552 581.981 389.861 569.656 405.045 569.656H412.217C412.463 569.656 412.697 569.629 412.932 569.593C413.164 569.629 413.401 569.656 413.644 569.656H420.816C436.001 569.656 448.312 581.981 448.312 597.187V613.939H471.327V597.187C471.327 581.981 483.639 569.656 498.823 569.656H514.073C529.257 569.656 541.567 581.981 541.567 597.187V613.939H564.132V597.187C564.132 581.981 576.443 569.656 591.625 569.656H598.801C601.336 569.656 603.393 567.596 603.393 565.053V543.84H416.813Z" fill="#E0E9F0"/>
<path d="M274.083 597.187V613.939H285.515V597.187C285.515 581.981 297.825 569.656 313.011 569.656H301.577C286.391 569.656 274.083 581.981 274.083 597.187Z" fill="#407294"/>
<path d="M366.12 597.187V613.939H377.552V597.187C377.552 581.981 389.861 569.656 405.045 569.656H393.613C378.428 569.656 366.12 581.981 366.12 597.187Z" fill="#407294"/>
<path d="M268.485 570.051C266.024 570.051 264.028 568.053 264.028 565.588C264.028 563.124 266.024 561.127 268.485 561.127C270.947 561.127 272.943 563.124 272.943 565.588C272.943 568.053 270.947 570.051 268.485 570.051ZM268.485 557.455C264 557.455 260.363 561.096 260.363 565.588C260.363 570.08 264 573.723 268.485 573.723C272.972 573.723 276.609 570.08 276.609 565.588C276.609 561.096 272.972 557.455 268.485 557.455Z" fill="#407294"/>
<path d="M365.819 570.051C363.356 570.051 361.361 568.053 361.361 565.588C361.361 563.124 363.356 561.127 365.819 561.127C368.279 561.127 370.273 563.124 370.273 565.588C370.273 568.053 368.279 570.051 365.819 570.051ZM365.819 557.455C361.332 557.455 357.695 561.096 357.695 565.588C357.695 570.08 361.332 573.723 365.819 573.723C370.305 573.723 373.94 570.08 373.94 565.588C373.94 561.096 370.305 557.455 365.819 557.455Z" fill="#407294"/>
<path d="M459.895 597.187V613.939H471.327V597.187C471.327 581.981 483.639 569.656 498.823 569.656H487.391C472.205 569.656 459.895 581.981 459.895 597.187Z" fill="#407294"/>
<path d="M552.696 597.187V613.939H564.132V597.187C564.132 581.981 576.443 569.656 591.625 569.656H580.195C565.008 569.656 552.696 581.981 552.696 597.187Z" fill="#407294"/>
<path d="M458.692 570.051C456.228 570.051 454.233 568.053 454.233 565.588C454.233 563.124 456.228 561.127 458.692 561.127C461.151 561.127 463.145 563.124 463.145 565.588C463.145 568.053 461.151 570.051 458.692 570.051ZM458.692 557.455C454.204 557.455 450.567 561.096 450.567 565.588C450.567 570.08 454.204 573.723 458.692 573.723C463.177 573.723 466.812 570.08 466.812 565.588C466.812 561.096 463.177 557.455 458.692 557.455Z" fill="#407294"/>
<path d="M548.357 570.051C545.896 570.051 543.9 568.053 543.9 565.588C543.9 563.124 545.896 561.127 548.357 561.127C550.819 561.127 552.813 563.124 552.813 565.588C552.813 568.053 550.819 570.051 548.357 570.051ZM548.357 557.455C543.871 557.455 540.235 561.096 540.235 565.588C540.235 570.08 543.871 573.723 548.357 573.723C552.843 573.723 556.477 570.08 556.477 565.588C556.477 561.096 552.843 557.455 548.357 557.455Z" fill="#407294"/>
<path d="M827.717 569.656H598.416V544.799H827.717V569.656Z" fill="#E0E9F0"/>
<path d="M827.717 526.723H225.973C224.464 526.723 223.239 527.949 223.239 529.463V544.799H827.717V526.723Z" fill="#407294"/>
<path d="M642.135 613.148C646.557 613.148 650.721 611.421 653.852 608.282L653.855 608.28C656.065 606.069 659.001 604.851 662.12 604.851C665.237 604.851 668.171 606.067 670.379 608.277C670.381 608.28 670.384 608.282 670.387 608.282C673.519 611.421 677.679 613.148 682.104 613.148C686.528 613.148 690.692 611.421 693.823 608.282C693.823 608.282 693.825 608.28 693.828 608.277C696.036 606.067 698.971 604.851 702.089 604.851C705.205 604.851 708.139 606.067 710.351 608.277C710.353 608.28 710.353 608.282 710.356 608.282C713.584 611.517 717.829 613.135 722.073 613.135C726.317 613.135 730.561 611.517 733.792 608.282C733.795 608.282 733.797 608.28 733.797 608.277C736.008 606.067 738.94 604.851 742.059 604.851C745.175 604.851 748.111 606.067 750.317 608.277C750.32 608.28 750.323 608.282 750.325 608.282C753.556 611.517 757.801 613.137 762.044 613.137C766.287 613.137 770.532 611.517 773.763 608.282C774.717 607.327 774.717 605.78 773.763 604.825C772.808 603.869 771.263 603.869 770.308 604.825C765.752 609.389 758.339 609.389 753.783 604.827L753.78 604.825C750.645 601.687 746.484 599.96 742.059 599.96C737.636 599.96 733.472 601.687 730.341 604.825C730.339 604.825 730.339 604.825 730.339 604.827C725.781 609.389 718.369 609.389 713.811 604.827L713.808 604.825C710.675 601.687 706.515 599.96 702.089 599.96C697.664 599.96 693.5 601.687 690.369 604.825C690.367 604.825 690.367 604.827 690.364 604.829C688.156 607.039 685.223 608.257 682.104 608.257C678.984 608.257 676.051 607.039 673.84 604.827C673.84 604.825 673.84 604.825 673.837 604.825C670.707 601.687 666.543 599.96 662.12 599.96C657.693 599.96 653.532 601.687 650.399 604.825C650.399 604.827 650.396 604.827 650.393 604.829C648.183 607.041 645.251 608.257 642.135 608.257C639.013 608.257 636.077 607.039 633.867 604.825C632.915 603.869 631.367 603.869 630.413 604.825C629.461 605.78 629.461 607.327 630.413 608.282C633.547 611.421 637.709 613.148 642.135 613.148Z" fill="white"/>
<path d="M770.308 621.941C765.752 626.504 758.339 626.507 753.783 621.946C753.783 621.944 753.78 621.944 753.78 621.941C750.645 618.804 746.484 617.077 742.059 617.077C737.636 617.077 733.472 618.804 730.341 621.941C730.339 621.944 730.339 621.944 730.339 621.944C725.781 626.507 718.369 626.507 713.811 621.946C713.811 621.944 713.808 621.944 713.808 621.941C710.675 618.804 706.515 617.077 702.089 617.077C697.664 617.077 693.5 618.804 690.369 621.941C690.367 621.944 690.367 621.946 690.364 621.946C688.156 624.158 685.223 625.375 682.104 625.375C678.984 625.375 676.051 624.158 673.84 621.944C673.84 621.944 673.84 621.941 673.837 621.941C670.707 618.804 666.543 617.077 662.12 617.077C657.693 617.077 653.532 618.804 650.399 621.941C650.399 621.944 650.396 621.946 650.393 621.949C648.183 624.158 645.252 625.375 642.135 625.375C639.013 625.375 636.077 624.156 633.867 621.941C632.915 620.989 631.367 620.989 630.413 621.944C629.461 622.897 629.461 624.446 630.413 625.403C633.547 628.539 637.707 630.265 642.135 630.265C646.557 630.265 650.719 628.539 653.852 625.4C653.852 625.4 653.852 625.397 653.855 625.397C656.065 623.187 658.999 621.968 662.12 621.968C665.235 621.968 668.171 623.184 670.379 625.394C670.381 625.397 670.384 625.4 670.384 625.4C673.519 628.539 677.679 630.265 682.103 630.265C686.527 630.265 690.689 628.539 693.823 625.4L693.825 625.397C696.036 623.187 698.971 621.968 702.087 621.968C705.205 621.968 708.139 623.184 710.351 625.394C710.351 625.397 710.353 625.4 710.356 625.4C713.584 628.637 717.829 630.255 722.073 630.255C726.317 630.255 730.561 628.637 733.792 625.4C733.795 625.4 733.795 625.397 733.797 625.394C736.008 623.187 738.94 621.968 742.059 621.968C745.175 621.968 748.111 623.184 750.317 625.394C750.32 625.397 750.32 625.4 750.323 625.403C753.556 628.637 757.799 630.255 762.041 630.255C766.287 630.255 770.532 628.637 773.763 625.403C774.717 624.446 774.717 622.897 773.763 621.944C772.808 620.987 771.263 620.989 770.308 621.941Z" fill="white"/>
<path d="M770.308 639.061C765.752 643.621 758.339 643.624 753.783 639.064L753.78 639.061C750.645 635.924 746.484 634.197 742.059 634.197C737.636 634.197 733.472 635.924 730.341 639.061C730.339 639.061 730.339 639.061 730.339 639.064C725.781 643.624 718.369 643.624 713.811 639.064L713.808 639.061C710.675 635.924 706.515 634.197 702.089 634.197C697.664 634.197 693.5 635.924 690.369 639.061C690.367 639.061 690.367 639.064 690.364 639.064C688.156 641.275 685.223 642.493 682.104 642.493C678.984 642.493 676.051 641.275 673.84 639.064C673.84 639.061 673.84 639.061 673.837 639.061C670.707 635.924 666.543 634.197 662.12 634.197C657.693 634.197 653.532 635.924 650.399 639.058C650.399 639.061 650.396 639.064 650.393 639.067C648.183 641.275 645.252 642.493 642.135 642.493C639.013 642.493 636.077 641.275 633.867 639.061C632.915 638.105 631.367 638.105 630.413 639.061C629.461 640.017 629.461 641.564 630.413 642.52C633.547 645.656 637.707 647.382 642.135 647.382C646.557 647.382 650.719 645.656 653.852 642.517C653.852 642.517 653.852 642.517 653.855 642.515C656.065 640.304 658.999 639.085 662.12 639.085C665.235 639.085 668.171 640.304 670.379 642.515C670.381 642.515 670.384 642.517 670.384 642.517C673.519 645.656 677.679 647.382 682.103 647.382C686.527 647.382 690.689 645.656 693.823 642.517L693.825 642.515C696.036 640.304 698.971 639.085 702.087 639.085C705.205 639.085 708.139 640.304 710.351 642.515C710.351 642.515 710.353 642.517 710.356 642.517C713.584 645.755 717.829 647.372 722.073 647.372C726.317 647.372 730.561 645.755 733.792 642.517C733.795 642.517 733.795 642.515 733.797 642.515C736.008 640.304 738.94 639.085 742.059 639.085C745.175 639.085 748.111 640.304 750.317 642.512C750.32 642.515 750.32 642.517 750.323 642.52C753.556 645.755 757.799 647.372 762.041 647.372C766.287 647.372 770.532 645.755 773.763 642.52C774.717 641.564 774.717 640.017 773.763 639.061C772.808 638.105 771.263 638.105 770.308 639.061Z" fill="white"/>
<path class="car c-1" d="M302.497 242.252H353.185V279.853H302.497V242.252Z" fill="#47A0AF"/>
<path class="car c-2" d="M302.497 259.375H353.185V279.853H302.497V259.375Z" fill="#85AFB3"/>
<path class="car c-3" d="M374.093 265.061L368.777 256.559C368.451 256.033 367.875 255.716 367.259 255.716H353.185V279.855H373.645C374.085 279.855 374.444 279.497 374.444 279.056V266.284C374.444 265.853 374.323 265.428 374.093 265.061Z" fill="#47A0AF"/>
<path class="car c-e" d="M358.825 258.272H365.491L369.356 264.069V269.097H358.825V258.272Z" fill="#85AFB3"/>
<path class="car c-e" d="M369.356 264.069L365.491 258.272H358.825V261.669L369.356 264.069Z" fill="#EEF9F8"/>
<path class="car c-e" d="M302.497 274.669H353.185V279.852H302.497V274.669Z" fill="#407294"/>
<path class="car c-e" d="M374.019 279.852H368.38V274.397H374.444V279.425C374.444 279.66 374.255 279.852 374.019 279.852Z" fill="#407294"/>
<path class="car c-e" d="M359.933 273.793C363.277 273.793 365.987 276.508 365.987 279.856C365.987 283.204 363.277 285.919 359.933 285.919C356.588 285.919 353.879 283.204 353.879 279.856C353.879 276.508 356.588 273.793 359.933 273.793Z" fill="#1C375C"/>
<path class="car c-e" d="M359.933 275.919C362.104 275.919 363.865 277.68 363.865 279.856C363.865 282.031 362.104 283.795 359.933 283.795C357.761 283.795 355.999 282.031 355.999 279.856C355.999 277.68 357.761 275.919 359.933 275.919Z" fill="#EEF9F8"/>
<path class="car c-e" d="M317.4 273.793C320.743 273.793 323.453 276.508 323.453 279.856C323.453 283.204 320.743 285.919 317.4 285.919C314.055 285.919 311.345 283.204 311.345 279.856C311.345 276.508 314.055 273.793 317.4 273.793Z" fill="#1C375C"/>
<path class="car c-e" d="M317.4 275.919C319.571 275.919 321.333 277.68 321.333 279.856C321.333 282.031 319.571 283.795 317.4 283.795C315.227 283.795 313.467 282.031 313.467 279.856C313.467 277.68 315.227 275.919 317.4 275.919Z" fill="#EEF9F8"/>
<path class="car c-e" d="M372.936 270.065C372.333 270.065 371.844 270.553 371.844 271.157V271.951C371.844 272.553 372.333 273.043 372.936 273.043H374.444V270.065H372.936Z" fill="#EEF9F8"/>
<path class="car c-e" d="M304.008 270.065H302.497V273.043H304.008C304.609 273.043 305.097 272.553 305.097 271.951V271.157C305.097 270.553 304.609 270.065 304.008 270.065Z" fill="#E0E9F0"/>
</g>
<defs>
<clipPath id="clip0_1_2">
<rect width="827.72" height="695.427" fill="white"/>
</clipPath>
</defs>
</svg>
