<?xml version="1.0" encoding="utf-8"?>
<!-- Generator: Adobe Illustrator 15.0.0, SVG Export Plug-In . SVG Version: 6.00 Build 0)  -->
<!DOCTYPE svg PUBLIC "-//W3C//DTD SVG 1.1//EN" "http://www.w3.org/Graphics/SVG/1.1/DTD/svg11.dtd">
<svg version="1.1" id="Слой_1" xmlns="http://www.w3.org/2000/svg" xmlns:xlink="http://www.w3.org/1999/xlink" x="0px" y="0px"
	 width="82.496px" height="83.996px" viewBox="0 0 82.496 83.996" enable-background="new 0 0 82.496 83.996" xml:space="preserve">
<g>
	<g>
		<path d="M55.749,53.82h-3.991c-0.52,0-0.938,0.482-0.938,1.076v6.826h-1.166c-0.516,0-0.932,0.479-0.932,1.074
			c0,0.592,0.416,1.073,0.932,1.073h1.166v1.479h-1.166c-0.516,0-0.932,0.48-0.932,1.07c0,0.598,0.416,1.073,0.932,1.073h1.166v2.12
			c0,0.593,0.418,1.074,0.938,1.074c0.514,0,0.93-0.481,0.93-1.074v-2.122h5.109c0.518,0,0.932-0.476,0.932-1.073
			c0-0.59-0.414-1.07-0.932-1.07h-5.109v-1.479h3.063c1.557,0,2.87-0.505,3.8-1.457c0.861-0.891,1.339-2.107,1.339-3.434
			C60.887,56.48,59.086,53.82,55.749,53.82z M58.307,60.811c-0.582,0.599-1.465,0.912-2.558,0.912h-3.063v-5.755h3.063
			c2.153,0,3.272,1.517,3.272,3.013C59.021,59.686,58.77,60.335,58.307,60.811z"/>
	</g>
	<g>
		<g>
			<path d="M66.199,67.145c-0.645-0.345-1.447-0.101-1.791,0.545c-1.896,3.558-5.579,5.77-9.607,5.77
				c-5.927,0-10.892-5.014-10.88-10.896c0.007-5.832,4.961-10.869,10.88-10.869c4.038,0,7.721,2.22,9.618,5.785
				c0.343,0.646,1.146,0.892,1.789,0.549c0.644-0.344,0.89-1.146,0.546-1.789c-2.355-4.434-6.936-7.189-11.953-7.189
				c-1.797,0-3.515,0.354-5.085,0.994c0.056-0.74,0.075-1.479,0.068-2.221V17.399c0-2.808-2.284-5.091-5.091-5.091
				c-2.643,0-4.82,2.021-5.066,4.6l-1.807-4.816c-1.059-2.826-4.267-4.358-7.122-3.417c-3.038,0.997-4.682,4.412-3.564,7.41
				l5.7,15.925c-0.973-0.138-1.849-0.176-2.787-0.177c-4.639-0.133-8.766,1.713-11.468,3.116c-0.027,0.016-0.057,0.031-0.086,0.047
				c-1.722,1.061-2.664,2.688-2.729,4.708c-0.001,0.013-0.001,0.028-0.001,0.041c0,0.519,0.069,1.021,0.2,1.499h-1.288
				c-0.731,0-1.323,0.592-1.323,1.322V53.23c0,2.063,0.845,4.063,2.32,5.502l7.104,8.843c0.995,1.267,1.494,2.916,1.299,4.317
				l-0.351,2.717c-0.095,0.724,0.418,1.387,1.142,1.479c0.057,0.009,0.115,0.013,0.17,0.013c0.656,0,1.224-0.487,1.312-1.154
				l0.348-2.703c0.295-2.108-0.395-4.469-1.844-6.309c-0.003-0.004-0.006-0.008-0.009-0.01l-7.161-8.915
				c-0.036-0.047-0.075-0.091-0.119-0.131c-0.995-0.946-1.565-2.274-1.565-3.649v-9.34h0.03c0.9,0,1.789,0.229,2.569,0.66
				c1.694,0.938,2.746,2.723,2.746,4.654V51.4c0,0.36,0.146,0.703,0.405,0.951l3.081,2.975c1.478,1.43,3.451,2.152,5.865,2.152
				c0.018,0,0.036,0,0.054-0.002c4.578-0.193,7.938-3.64,8.169-8.379c0.002-0.02,0.003-0.043,0.003-0.063
				c0-4.728-3.729-8.431-8.496-8.455c-2.938-0.187-5.625,0.382-7.772,1.645c-0.879,0.497-1.89,0.5-2.772,0.014
				c-0.917-0.505-1.464-1.427-1.471-2.47c0.041-1.109,0.498-1.903,1.435-2.492c3.916-2.027,7.046-2.89,10.145-2.795
				c0.015,0,0.027,0,0.038,0c1.464,0,2.669,0.095,4.499,0.581c0.007,0.002,0.008,0.002,0.013,0.004
				c0.019,0.005,1.907,0.512,3.182,1.34c0.223,0.145,0.471,0.213,0.719,0.213c0.431,0,0.857-0.21,1.109-0.601
				c0.399-0.612,0.226-1.431-0.388-1.829c-1.1-0.715-2.461-1.216-3.265-1.476l-6.274-17.526c-0.536-1.504,0.384-3.497,1.905-3.996
				c1.439-0.474,3.283,0.405,3.819,1.834l9.163,24.438c1.302,3.474,2.568,7.014,2.63,10.766c0,1.129-0.089,2.266-0.265,3.383
				c-2.575,1.863-4.38,4.537-5.162,7.547c-0.474,1.813-0.563,3.724-0.267,5.572v10.047c0,0.731,0.592,1.324,1.325,1.324
				c0.729,0,1.322-0.593,1.322-1.324v-3.949c2.475,3.205,6.355,5.273,10.708,5.273c5.009,0,9.584-2.746,11.942-7.17
				C67.087,68.288,66.844,67.486,66.199,67.145L66.199,67.145z M23.966,44.52c0.006-0.004,0.013-0.006,0.018-0.011
				c1.7-1.003,3.882-1.446,6.31-1.288c0.029,0.004,0.058,0.004,0.088,0.004c3.296,0,5.879,2.535,5.896,5.779
				c-0.179,3.344-2.43,5.682-5.611,5.831c-1.69-0.006-3.035-0.479-3.998-1.407L23.99,50.84v-1.634c0-1.505-0.426-2.95-1.19-4.188
				C23.198,44.898,23.591,44.732,23.966,44.52L23.966,44.52z M42.247,23.898v-6.499c0-1.35,1.099-2.447,2.444-2.447
				c1.348,0,2.445,1.097,2.445,2.447v19.505c-0.078-0.192-0.133-0.325-0.16-0.388L42.247,23.898z"/>
			<path d="M68.302,62.314c-0.235-1.156-1.823-1.438-2.431-0.42c-0.611,1.03,0.41,2.312,1.55,1.934
				C68.046,63.624,68.434,62.965,68.302,62.314z"/>
		</g>
	</g>
</g>
</svg>
