<svg width="621" height="463" viewBox="0 0 621 463" fill="none" xmlns="http://www.w3.org/2000/svg">
<g clip-path="url(#clip0_1_633)">
<path d="M381.652 463.32L350.099 458.429V463.32H381.652Z" fill="#407295"/>
<path d="M577.156 463.179L621.187 420.334L446.085 403.546L350.099 458.429L380.609 463.179H577.156Z" fill="#C7E9EF"/>
<path d="M422.58 383.56H387.404L384.323 382.617L387.287 381.625H422.58V383.56Z" fill="#47A1AF"/>
<path d="M417.56 418.306C417.56 418.306 392.184 410.569 387.296 408.953C385.992 408.522 382.592 408.497 382.083 407.222C381.559 405.925 385.001 403.639 384.689 402.279C384.409 401.058 380.992 400.517 380.657 399.31C380.185 397.604 383.384 392.772 383.384 392.772C383.384 392.772 388.748 384.118 390.616 381.286C391.191 380.415 391.964 378.057 392.987 377.848C396.144 377.2 400.796 383.829 403.892 384.724C404.615 384.933 405.749 384.784 406.909 384.636C408.308 384.456 409.741 384.277 410.529 384.724C414.165 386.784 421.071 401.551 421.071 401.551L417.56 418.306Z" fill="#F5B875"/>
<path d="M561.185 365.946L500.075 375.501L499.203 325.302L567.219 303.829L561.185 365.946Z" fill="#F5B875"/>
<path d="M510.715 211.044C532.079 208.593 541.097 217.784 546.805 225.241C563.26 246.734 556.187 260.317 561.828 270.242C571.187 286.701 588.001 281.306 596.551 300.004C601.296 310.382 594.809 323.414 596.363 328.154C598.105 333.484 605.706 335.769 606.804 341.708C607.414 345.02 602.62 357.025 600.007 358.581L511.711 322.046L469.464 253.462L479.827 228.202C479.827 228.202 493.637 213.002 510.715 211.044Z" fill="#F7AB0D"/>
<path d="M563.26 346.384L522.907 341.255L496.539 283.417L529.9 265.094L563.26 346.384Z" fill="#F5B875"/>
<path d="M601.772 418.475L491.527 408.384V327.727L509.344 322.101L520.853 369.623L552.141 312.095C552.141 312.095 571.351 299.207 578.491 300.271C586.235 301.424 594.793 303.829 599.741 313.751C602.956 320.192 602.085 349.645 602.085 349.645L601.772 418.475Z" fill="#47A1AF"/>
<path d="M502.528 372.876L481.125 363.608V408.61L507.991 409.66C507.991 409.66 496.539 403.477 502.825 388.116C508.628 373.936 502.528 372.876 502.528 372.876Z" fill="white"/>
<path d="M481.236 337.457L471.673 374.62C471.673 374.62 467.739 388.988 463.431 392.618C458.149 397.069 444.328 396.759 444.328 396.759L421.768 396.864L407.641 419.979C407.641 419.979 473.423 425.337 485.107 414.851C492.599 408.125 499.179 383.681 499.179 383.681L510.444 347.349L481.236 337.457Z" fill="#47A1AF"/>
<path d="M503.324 295.465C509.996 304.291 514.405 313.825 515.159 320.264C515.6 324.031 511.116 328.221 511.993 330.522C515.065 338.575 518.959 350.604 510.601 357.218C506.919 360.134 503.321 359.736 501.324 364.64C500.211 367.372 500.813 370.324 500.415 373.637C499.887 378.041 497.519 381.873 494.957 385.304C493.212 387.643 486.261 394.217 486.261 394.217C486.064 390.851 488.468 388.513 487.583 384.767C486.324 379.457 480.061 376.51 478.519 371.513C476.037 363.479 482.088 356.941 484.043 350.036C487.017 339.517 473.044 332.815 474.249 321.293C474.751 316.509 478.297 312.029 478.537 307.127C478.739 303.035 477.868 299.108 476.719 295.357C474.813 289.143 471.027 289.481 468.293 283.611C465.515 277.645 465.808 271.577 466.1 264.772C466.405 257.688 466.723 251.068 469.528 244.533C471.907 238.999 476.949 230.596 481.459 226.551L503.324 295.465Z" fill="#F7AB0D"/>
<path d="M543.745 252.655C543.745 272.831 525.149 295.845 508.396 295.845C497.443 295.845 482.384 290.203 478.793 275.811C478.299 273.833 474.613 274.617 474.249 272.601C473.876 270.527 476.829 265.649 476.593 263.595C476.175 259.953 475.967 256.392 475.967 253.084C475.967 232.908 493.529 216.621 510.285 216.621C527.039 216.621 543.745 226.057 543.745 252.655Z" fill="#F5B875"/>
<path d="M492.845 253.695C487.929 254.559 485.963 255.703 482.629 259.687L500.424 256.552C500.068 254.519 497.759 252.828 492.845 253.695Z" fill="#1F2328"/>
<path d="M491.527 223.227C491.527 232.973 495.216 242.021 501.536 249.524C512.072 262.029 529.919 270.243 550.18 270.243L491.527 223.227Z" fill="#EAA912"/>
<path d="M475.139 449.75L424.035 434.969L355.311 374.62L399.639 383.974L475.139 449.75Z" fill="#C7E9EF"/>
<path d="M473.423 451.467L422.319 436.687L353.596 376.336L397.923 385.691L473.423 451.467Z" fill="#407295"/>
<path d="M482.828 431.392C482.828 431.392 471.671 432.78 468.209 431.604C465.073 430.539 460.945 424.47 457.817 423.381C456.519 422.93 454.361 423.106 452.28 423.282C450.609 423.424 448.987 423.565 447.899 423.381C446.965 423.225 444.995 421.48 444.319 422.144C442.967 423.475 447.796 427.813 446.684 429.349C446.152 430.082 444.648 429.81 443.177 429.536C442.068 429.329 440.976 429.124 440.333 429.349C439.479 429.648 437.659 430.713 437.507 431.604C436.575 437.075 444.436 447.725 449.291 450.413C452.64 452.267 461.025 451.765 464.605 450.413C466.28 449.781 468.316 446.355 469.976 445.682C475.309 443.527 492.963 444.612 492.963 444.612L482.828 431.392Z" fill="#F5B875"/>
<path d="M594.191 355.18L565.125 332.288L542.871 400.872L526.224 411.582L538.417 412.706L601.772 418.475L594.191 355.18Z" fill="#388590"/>
<path d="M566.015 329.057C566.015 329.057 559.749 355.844 555.272 378.639C550.105 404.932 554.769 407.516 521.38 419.736C502.564 426.624 480.965 430.477 480.965 430.477L495.053 448.555L540.972 437.993C540.972 437.993 567.301 432.4 573.595 426.236C579.268 420.68 583.075 399.292 583.075 399.292L597.469 342.167L566.015 329.057Z" fill="#47A1AF"/>
<path d="M569.123 288.516C565.481 284.268 564.231 288.187 561.959 291.725C559.577 295.435 559.616 299.955 559.616 304.645C559.616 309.309 560.971 314.968 559.089 319.233C556.493 325.12 549.923 329.419 548.089 335.892C546.493 341.527 548.045 347.168 550.155 352.288C551.649 355.912 555.601 361.469 554.06 365.903C553.252 368.225 550.319 370.227 548.789 372.172C546.968 374.485 546.381 375.647 545.985 378.773C545.44 383.081 547.221 388.235 546.748 392.071C546.368 395.144 542.4 397.795 540.217 400.965C538.408 403.596 537.033 408.445 533.879 409.66L535.167 407.087C539.884 389.212 513.86 380.753 521.951 360.767C525.427 352.177 528.527 349.276 531.528 346.163C540.885 336.448 529.829 325.564 526.919 318.311C523.08 308.744 520.023 298.157 523.701 288.689C526.529 281.404 533.107 280.892 529.493 273.247C515.632 243.915 493.408 226.28 491.527 223.227C491.527 223.227 490.285 217.384 511.828 214.077C532.224 210.944 540.113 230.196 540.113 230.196L569.123 288.516Z" fill="#F7AB0D"/>
<path d="M621.187 463.179V420.334L577.156 463.179H621.187Z" fill="#407295"/>
<path d="M350.099 463.179H0L530.093 67.2439L599.763 119.529L555.167 239.604C553.427 235.245 550.815 230.477 546.805 225.241C541.74 218.623 534.068 210.64 517.471 210.64C515.368 210.64 513.117 210.769 510.715 211.044C497.103 212.605 485.567 222.579 481.445 226.563C476.939 230.613 471.904 239.004 469.528 244.533C466.723 251.068 466.405 257.688 466.1 264.772C465.808 271.577 465.515 277.645 468.293 283.611C471.027 289.481 474.813 289.143 476.719 295.357C477.868 299.108 478.739 303.035 478.537 307.127C478.297 312.029 474.751 316.509 474.249 321.293C473.559 327.904 477.863 332.928 481.097 337.996L471.673 374.62C471.673 374.62 467.739 388.988 463.431 392.618C458.796 396.525 447.58 396.764 444.907 396.764C444.535 396.764 444.328 396.758 444.328 396.758L421.768 396.864L420.113 399.572C418.089 395.475 413.336 386.313 410.529 384.724C410.163 384.516 409.657 384.444 409.08 384.444C408.416 384.444 407.657 384.54 406.909 384.636C406.161 384.732 405.424 384.828 404.8 384.828C404.457 384.828 404.148 384.799 403.892 384.724C403.256 384.54 402.555 384.115 401.813 383.56H422.58V381.625H399.505C397.409 379.772 395.223 377.804 393.436 377.804C393.283 377.804 393.133 377.817 392.987 377.848C391.964 378.057 391.191 380.415 390.616 381.287C390.547 381.392 390.472 381.505 390.393 381.625H388.508L355.311 374.62L358.425 377.355L353.596 376.336L384.384 403.372C383.596 404.664 381.683 406.232 382.083 407.223C382.592 408.497 385.992 408.523 387.296 408.953C388.325 409.293 390.263 409.905 392.681 410.658L408.836 424.845L350.099 458.429V463.179Z" fill="#FBFAB3"/>
<path d="M380.736 463.179H350.099V458.429L380.609 463.179H380.736Z" fill="#7B9780"/>
<path d="M472.132 463.179H380.609L350.099 458.429L408.836 424.845L422.319 436.687L441.315 442.18C443.757 445.812 446.892 449.085 449.291 450.413C450.836 451.269 453.456 451.622 456.18 451.622C459.357 451.622 462.677 451.141 464.605 450.413C465.075 450.236 465.573 449.839 466.084 449.344L473.423 451.467L469.621 448.155L475.139 449.751L470.321 445.553C472.293 444.868 475.609 444.544 479.101 444.413L472.132 463.179ZM472.847 432.077C470.951 432.077 469.24 431.955 468.209 431.604C465.073 430.539 460.945 424.47 457.817 423.381C457.207 423.169 456.405 423.096 455.512 423.096C454.507 423.096 453.383 423.189 452.28 423.282C451.177 423.376 450.096 423.469 449.176 423.469C448.701 423.469 448.269 423.444 447.899 423.381C447.113 423.251 445.593 421.993 444.729 421.993C444.565 421.993 444.427 422.037 444.319 422.144C444.168 422.292 444.095 422.477 444.08 422.692L442.537 421.348C442.551 421.348 442.56 421.348 442.573 421.348C460.316 421.348 479.328 420.037 485.107 414.851C486.624 413.489 488.103 411.401 489.497 408.937L492.237 409.044L484.533 429.788C482.276 430.243 480.965 430.477 480.965 430.477L481.772 431.513C479.957 431.709 476.125 432.077 472.847 432.077Z" fill="#D7ECAD"/>
<path d="M422.58 383.56H401.813C401.075 383.006 400.296 382.324 399.505 381.625H422.58V383.56ZM390.167 381.975L388.508 381.625H390.393C390.321 381.736 390.245 381.853 390.167 381.975Z" fill="#84BB8C"/>
<path d="M392.681 410.658C390.263 409.905 388.325 409.293 387.296 408.953C385.992 408.522 382.592 408.497 382.083 407.222C381.683 406.232 383.596 404.664 384.384 403.372L392.681 410.658ZM419.22 401.033L399.639 383.974L390.167 381.974C390.245 381.853 390.321 381.736 390.393 381.625C390.472 381.505 390.547 381.392 390.616 381.286C391.191 380.414 391.964 378.057 392.987 377.848C393.133 377.817 393.283 377.804 393.436 377.804C395.223 377.804 397.409 379.772 399.505 381.625C400.296 382.324 401.075 383.006 401.813 383.56C402.555 384.114 403.256 384.539 403.892 384.724C404.148 384.798 404.457 384.828 404.8 384.828C405.424 384.828 406.161 384.732 406.909 384.636C407.657 384.539 408.416 384.444 409.08 384.444C409.657 384.444 410.163 384.516 410.529 384.724C413.336 386.313 418.089 395.474 420.113 399.572L419.22 401.033Z" fill="#F5CE5E"/>
<path d="M515.632 346.053C515.669 340.724 513.704 335.005 511.993 330.521C511.347 328.824 513.617 326.099 514.675 323.273L514.717 323.291L519.88 334.616L515.632 346.053Z" fill="#F5CE5E"/>
<path d="M514.717 323.291L514.675 323.273C514.68 323.26 514.685 323.247 514.691 323.232L514.717 323.291ZM550.732 251.544L540.113 230.196C540.113 230.196 533.368 213.732 516.221 213.732C514.828 213.732 513.361 213.841 511.828 214.077C490.473 217.356 491.507 223.125 491.527 223.225C488.357 225.555 485.484 228.424 483.093 231.707L481.459 226.551C481.453 226.555 481.449 226.559 481.445 226.563C485.567 222.579 497.103 212.605 510.715 211.044C513.117 210.769 515.368 210.64 517.471 210.64C534.068 210.64 541.74 218.623 546.805 225.241C550.815 230.477 553.427 235.245 555.167 239.604L550.732 251.544Z" fill="#F6C417"/>
<path d="M519.88 334.616L514.717 323.291L514.691 323.232C515.057 322.241 515.273 321.239 515.159 320.264C514.405 313.827 509.996 304.291 503.325 295.467C505.071 295.723 506.779 295.845 508.396 295.845C513.296 295.845 518.353 293.877 523.057 290.587C520.556 299.129 523.071 308.444 526.412 317.027L519.88 334.616Z" fill="#F5CE5E"/>
<path d="M504.833 375.129C504.028 373.137 502.528 372.876 502.528 372.876L506.675 359.506C507.923 358.906 509.256 358.283 510.601 357.218C511.084 356.836 511.527 356.436 511.931 356.02L504.833 375.129Z" fill="#84BB8C"/>
<path d="M492.237 409.044L489.497 408.937C494.993 399.229 499.179 383.681 499.179 383.681L502.528 372.876C502.528 372.876 504.028 373.137 504.833 375.129L492.237 409.044Z" fill="#FBFAB3"/>
<path d="M442.573 421.348C442.56 421.348 442.551 421.348 442.537 421.348L419.22 401.034L420.113 399.572L421.768 396.864L444.328 396.759C444.328 396.759 444.535 396.764 444.907 396.764C447.58 396.764 458.796 396.525 463.431 392.618C467.739 388.988 471.673 374.62 471.673 374.62L481.097 337.996C483.5 341.763 485.311 345.552 484.043 350.036C482.088 356.941 476.037 363.479 478.519 371.513C480.061 376.51 486.324 379.457 487.583 384.767C488.468 388.513 486.064 390.851 486.261 394.217C486.261 394.217 493.212 387.643 494.957 385.304C497.519 381.873 499.887 378.041 500.415 373.637C500.813 370.324 500.211 367.372 501.324 364.64C502.592 361.527 504.504 360.549 506.675 359.506L502.528 372.876L499.179 383.681C499.179 383.681 494.993 399.229 489.497 408.937C488.103 411.401 486.624 413.489 485.107 414.851C479.328 420.037 460.316 421.348 442.573 421.348Z" fill="#84BB8C"/>
<path d="M486.261 394.217C486.064 390.851 488.468 388.513 487.583 384.767C486.324 379.457 480.061 376.51 478.519 371.513C476.037 363.479 482.088 356.941 484.043 350.036C485.311 345.552 483.5 341.763 481.097 337.996C477.863 332.928 473.559 327.904 474.249 321.293C474.751 316.509 478.297 312.029 478.537 307.127C478.739 303.035 477.868 299.108 476.719 295.357C474.813 289.143 471.027 289.481 468.293 283.611C465.515 277.645 465.808 271.577 466.1 264.772C466.405 257.688 466.723 251.068 469.528 244.533C471.904 239.004 476.939 230.613 481.445 226.563C481.449 226.559 481.453 226.555 481.459 226.551L483.093 231.707C478.723 237.708 475.967 245.091 475.967 253.084C475.967 256.392 476.175 259.953 476.593 263.595C476.829 265.649 473.876 270.527 474.249 272.601C474.613 274.617 478.299 273.833 478.793 275.811C481.853 288.079 493.245 293.988 503.325 295.467C509.996 304.291 514.405 313.827 515.159 320.264C515.273 321.239 515.057 322.241 514.691 323.232C514.685 323.247 514.68 323.26 514.675 323.273C513.617 326.099 511.347 328.824 511.993 330.522C513.704 335.005 515.669 340.724 515.632 346.053L511.931 356.02C511.527 356.436 511.084 356.836 510.601 357.218C509.256 358.282 507.923 358.905 506.675 359.506C504.504 360.549 502.592 361.527 501.324 364.64C500.211 367.372 500.813 370.324 500.415 373.637C499.887 378.041 497.519 381.873 494.957 385.304C493.212 387.643 486.261 394.217 486.261 394.217Z" fill="#F6C417"/>
<path d="M508.396 295.845C506.779 295.845 505.071 295.723 503.325 295.467C493.245 293.988 481.853 288.079 478.793 275.811C478.299 273.833 474.613 274.617 474.249 272.601C473.876 270.527 476.829 265.649 476.593 263.595C476.175 259.953 475.967 256.392 475.967 253.084C475.967 245.091 478.723 237.708 483.093 231.707C485.484 228.424 488.357 225.555 491.527 223.225C491.527 223.227 491.527 223.227 491.527 223.227C491.527 232.973 495.216 242.021 501.536 249.524C507.544 256.655 515.929 262.391 525.785 266.003C527.069 268.331 528.312 270.747 529.493 273.247C533.107 280.892 526.529 281.404 523.701 288.689C523.457 289.316 523.244 289.949 523.057 290.587C518.353 293.877 513.296 295.845 508.396 295.845ZM495.297 253.461C494.565 253.461 493.749 253.535 492.845 253.695C487.929 254.559 485.963 255.703 482.629 259.687L500.424 256.552C500.133 254.893 498.543 253.461 495.297 253.461Z" fill="#F5CE5E"/>
<path d="M482.629 259.687C485.963 255.703 487.929 254.559 492.845 253.695C493.749 253.535 494.565 253.461 495.297 253.461C498.543 253.461 500.133 254.893 500.424 256.552L482.629 259.687Z" fill="#51523B"/>
<path d="M525.785 266.002C515.929 262.39 507.544 256.654 501.536 249.524C495.216 242.021 491.527 232.973 491.527 223.226C493.247 226.02 511.991 241.013 525.785 266.002Z" fill="#EDC21B"/>
<path d="M475.139 449.75L469.621 448.155L468.289 446.993C468.875 446.396 469.445 445.897 469.976 445.682C470.087 445.639 470.201 445.594 470.321 445.553L475.139 449.75ZM446.767 428.243L397.923 385.691L358.425 377.355L355.311 374.62L388.508 381.625L390.167 381.974L399.639 383.974L419.22 401.033L442.537 421.348L444.08 422.692C443.992 424.048 446.292 426.573 446.767 428.243Z" fill="#D7ECAD"/>
<path d="M473.423 451.467L466.084 449.344C466.811 448.64 467.561 447.739 468.289 446.993L469.621 448.155L473.423 451.467ZM441.315 442.18L422.319 436.687L408.836 424.845L392.681 410.658L384.384 403.372L353.596 376.336L358.425 377.355L397.923 385.691L446.767 428.243C446.892 428.684 446.889 429.064 446.684 429.349C446.429 429.7 445.951 429.822 445.361 429.822C444.719 429.822 443.944 429.679 443.177 429.536C442.411 429.393 441.652 429.251 441.044 429.251C440.773 429.251 440.532 429.28 440.333 429.349C439.479 429.648 437.659 430.713 437.507 431.604C437.035 434.37 438.813 438.463 441.315 442.18Z" fill="#7B9780"/>
<path d="M456.18 451.623C453.456 451.623 450.836 451.269 449.291 450.413C446.892 449.085 443.757 445.812 441.315 442.18C438.813 438.463 437.035 434.37 437.507 431.604C437.659 430.713 439.479 429.648 440.333 429.349C440.532 429.28 440.773 429.251 441.044 429.251C441.652 429.251 442.411 429.393 443.177 429.536C443.944 429.679 444.719 429.822 445.361 429.822C445.951 429.822 446.429 429.7 446.684 429.349C446.889 429.064 446.892 428.684 446.767 428.243C446.292 426.573 443.992 424.048 444.08 422.692C444.095 422.477 444.168 422.292 444.319 422.144C444.427 422.037 444.565 421.993 444.729 421.993C445.593 421.993 447.113 423.251 447.899 423.381C448.269 423.444 448.701 423.469 449.176 423.469C450.096 423.469 451.177 423.376 452.28 423.282C453.383 423.189 454.507 423.096 455.512 423.096C456.405 423.096 457.207 423.169 457.817 423.381C460.945 424.47 465.073 430.539 468.209 431.604C469.24 431.955 470.951 432.077 472.847 432.077C476.125 432.077 479.957 431.71 481.772 431.513L483.208 433.355L479.101 444.413C475.609 444.544 472.293 444.868 470.321 445.553C470.201 445.594 470.087 445.639 469.976 445.682C469.445 445.897 468.875 446.396 468.289 446.993C467.561 447.739 466.811 448.64 466.084 449.344C465.573 449.839 465.075 450.236 464.605 450.413C462.677 451.141 459.357 451.623 456.18 451.623Z" fill="#F5CE5E"/>
<path d="M483.208 433.355L481.772 431.513L480.965 430.477C480.965 430.477 482.276 430.243 484.533 429.788L483.208 433.355Z" fill="#84BB8C"/>
<path d="M526.412 317.026C523.071 308.444 520.556 299.129 523.057 290.586C523.244 289.949 523.457 289.316 523.701 288.689C526.529 281.404 533.107 280.892 529.493 273.246C528.312 270.746 527.069 268.33 525.785 266.002C511.991 241.013 493.247 226.02 491.527 223.226C491.527 223.226 491.527 223.226 491.527 223.225C491.507 223.125 490.473 217.356 511.828 214.077C513.361 213.841 514.828 213.732 516.221 213.732C533.368 213.732 540.113 230.196 540.113 230.196L550.732 251.544L526.412 317.026Z" fill="#F6C417"/>
<path d="M621.187 17.7785V0.00645235L530.599 66.6478L600.523 118.126L621.187 67.4198V17.7785Z" fill="#1C385C"/>
<path d="M599.763 119.529C594.107 127.067 573.925 121.472 554.688 107.035C535.448 92.5947 524.437 74.7814 530.093 67.2441C535.751 59.7067 555.932 65.3014 575.171 79.74C594.409 94.1787 605.42 111.992 599.763 119.529Z" fill="#F7AB0D"/>
<path d="M566.776 74.0265L554.473 83.0892L577.737 100.548L583.001 86.2038C580.581 84.0065 577.966 81.8372 575.17 79.7398C572.376 77.6412 569.562 75.7385 566.776 74.0265Z" fill="#1F2328"/>
<path d="M577.737 100.548C574.445 104.934 566.568 104.581 560.144 99.7611C553.721 94.9411 551.183 87.4771 554.473 83.0891C557.767 78.7011 565.643 79.0544 572.067 83.8744C578.491 88.6957 581.028 96.1597 577.737 100.548Z" fill="white"/>
</g>
<defs>
<clipPath id="clip0_1_633">
<rect width="621" height="463" fill="white"/>
</clipPath>
</defs>
</svg>
