<?xml version="1.0" encoding="utf-8"?>
<!-- Generator: Adobe Illustrator 15.0.0, SVG Export Plug-In . SVG Version: 6.00 Build 0)  -->
<!DOCTYPE svg PUBLIC "-//W3C//DTD SVG 1.1//EN" "http://www.w3.org/Graphics/SVG/1.1/DTD/svg11.dtd">
<svg version="1.1" id="Слой_1" xmlns="http://www.w3.org/2000/svg" xmlns:xlink="http://www.w3.org/1999/xlink" x="0px" y="0px"
	 width="82.496px" height="83.996px" viewBox="0 0 82.496 83.996" enable-background="new 0 0 82.496 83.996" xml:space="preserve">
<g>
	<g>
		<path d="M79.456,36.409c-0.324-0.401-0.643-0.763-0.949-1.114l-0.031-0.036c-1.416-1.611-1.838-2.214-1.438-3.197
			c0.096-0.235,0.18-0.487,0.252-0.748c0.182-0.671-0.217-1.366-0.889-1.548c-0.107-0.029-0.219-0.044-0.33-0.044
			c-0.568,0-1.068,0.383-1.217,0.931c-0.045,0.16-0.096,0.314-0.154,0.457c-1.021,2.509,0.453,4.188,1.879,5.814
			c0.268,0.304,0.598,0.682,0.914,1.07c0.992,1.229,1.676,3.246,1.801,4.265c-2.355-0.635-3.674-1.744-3.916-3.298l-0.064-0.428
			c-0.293-1.926-0.596-3.917-2.313-4.346c-0.234-0.059-0.488-0.088-0.754-0.088c-0.934,0-1.904,0.355-2.598,0.95
			c-0.799,0.685-1.188,1.64-1.09,2.688c0.029,0.329,0.074,0.68,0.117,1.018c0.156,1.217,0.391,3.057-0.26,3.502
			c-1.736,1.188-1.922,3.021-2.117,4.964c-0.041,0.391-0.086,0.834-0.145,1.29c-0.176,1.302,0.297,1.998,0.725,2.353
			c0.4,0.332,0.889,0.494,1.488,0.494c0.775,0,1.59-0.27,2.309-0.508l0.031-0.01c0.252-0.084,0.49-0.163,0.666-0.207
			c0.389-0.09,0.982,0.676,1.82,2.354c0.25,0.499,0.527,0.93,0.773,1.31l0.018,0.026c0.813,1.257,1.455,2.25,0.73,5.647
			c-0.277,1.307-0.676,1.847-0.852,1.986c-0.096-0.101-0.227-0.375-0.127-0.7c0.535-1.732,0.52-3.082-0.045-4.009
			c-0.371-0.61-0.947-1.001-1.668-1.132c-0.201-0.037-0.377-0.055-0.539-0.055c-0.436,0-0.783,0.128-1.158,0.429
			c-0.121,0.096-0.439,0.349-2.076,0.63c-0.496,0.084-0.891,0.125-1.209,0.125c-0.842,0-1.189-0.283-1.822-0.801
			c-0.373-0.307-0.883-0.726-1.58-1.129c-0.934-0.539-1.832-0.609-2.566-0.217c-1.502,0.808-1.711,3.068-1.928,6.688
			c-0.029,0.479-0.131,0.822-0.277,0.94c-0.121,0.099-0.365,0.148-0.725,0.148c-0.514,0-1.172-0.1-1.752-0.188L56.38,62.76
			c0-0.001,0,0,0,0l-0.016-0.079c-0.723-0.109-1.539-0.232-2.336-0.232c-0.482,0-0.912,0.044-1.311,0.135
			c-0.412,0.094-0.822,0.143-1.223,0.143c-0.99,0-1.768-0.281-2.453-0.529l-0.02-0.006c-0.557-0.199-1.037-0.371-1.557-0.371
			c-1.299,0-1.65,1.242-1.803,1.779c-0.043,0.146-0.125,0.436-0.191,0.551c-0.074,0.004-0.275,0-0.682-0.143
			c-0.658-0.23-1.295-0.348-1.895-0.348c-1.352,0-2.278,0.581-2.955,1.006c-0.497,0.313-0.793,0.49-1.103,0.49
			c-1.052,0-3.569-0.266-4.235-2.729c-0.694-2.568-2.69-2.765-3.765-2.87l-0.032-0.002c-0.09-0.01-0.191-0.02-0.283-0.031
			c-0.461-2.477-3.029-2.596-6.276-2.748c-2.157-0.102-3.177,0.49-3.462,2.041c-0.007,0.039-0.016,0.084-0.024,0.123
			c-0.041,0.019-0.11,0.045-0.215,0.07c-0.123,0.031-0.25,0.047-0.379,0.047c-1.317,0-2.59-1.585-2.753-2.088
			c-0.248-0.768-1.041-2.055-3.568-2.055c-0.533,0-1.125,0.058-1.76,0.172c-2.188,0.391-2.329,2.51-2.404,3.648
			c-0.009,0.131-0.021,0.323-0.038,0.491c-1.389,0.159-2.067,1.585-2.48,2.561c-0.33-1.036-1.006-2.438-2.873-3.472
			c-0.484-0.267-1.067-0.703-1.095-1.273c-0.012-0.271,0.1-0.52,0.209-0.664c0.053,0.002,0.11,0.002,0.173,0.002
			c0.978,0,3.364-0.168,4.393-1.727c0.463-0.703,0.809-1.916-0.174-3.701c-0.474-0.861-0.634-1.748-0.489-2.709
			c0.05-0.333-0.032-0.666-0.232-0.938c-0.2-0.271-0.494-0.449-0.827-0.499c-0.684-0.104-1.334,0.385-1.436,1.06
			c-0.229,1.51,0.032,2.957,0.773,4.303c0.277,0.502,0.386,0.932,0.279,1.094c-0.246,0.373-1.346,0.603-2.225,0.603
			c-0.121,0-0.229-0.005-0.323-0.015c-1.165-0.11-2.141,1-2.485,2.1c-0.208,0.668-0.663,2.973,2.237,4.574
			c1.384,0.766,1.627,1.729,1.863,2.663c0.195,0.771,0.489,1.938,1.755,2.19c0.133,0.027,0.264,0.041,0.389,0.041
			c1.307,0,1.902-1.433,2.3-2.389c0.157-0.376,0.445-1.064,0.648-1.287c0.652,0.038,1.089-0.226,1.339-0.438
			c0.715-0.609,0.778-1.563,0.833-2.404c0.073-1.096,0.165-1.303,0.33-1.332c0.493-0.088,0.938-0.132,1.323-0.132
			c0.779,0,1.122,0.185,1.162,0.308c0.445,1.377,2.549,3.834,5.156,3.834c0.333,0,0.666-0.041,0.989-0.121
			c1.742-0.436,1.993-1.559,2.101-2.141c0.144-0.021,0.417-0.042,0.871-0.02c1.498,0.07,2.795,0.146,3.488,0.367
			c0.411,0.132,0.418,0.205,0.442,0.449c0.172,1.727,1.766,1.881,2.532,1.955c0.992,0.096,1.346,0.172,1.575,1.017
			c1.152,4.263,5.397,4.595,6.671,4.595c1.045,0,1.82-0.484,2.444-0.875c0.58-0.365,1-0.628,1.611-0.628
			c0.309,0,0.656,0.069,1.061,0.212c0.553,0.193,1.039,0.288,1.49,0.288c0.441,0,0.846-0.095,1.205-0.281
			c0.828-0.428,1.174-1.218,1.375-1.882c0.057,0.021,0.111,0.041,0.166,0.061c0.795,0.286,1.885,0.678,3.297,0.678
			c0.588,0,1.191-0.07,1.793-0.207c0.215-0.049,0.461-0.074,0.752-0.074c0.596,0,1.277,0.104,1.939,0.203l0.029,0.005
			c0.705,0.107,1.436,0.219,2.127,0.219c0.988,0,1.727-0.226,2.326-0.71c0.729-0.589,1.137-1.514,1.211-2.75
			c0.078-1.322,0.223-3.752,0.576-4.509c0.043,0.021,0.09,0.045,0.139,0.073c0.504,0.291,0.875,0.594,1.24,0.893
			c0.945,0.775,1.797,1.367,3.424,1.367c0.484,0,1.018-0.051,1.631-0.156c1.742-0.298,2.48-0.638,2.906-0.913
			c0.039,0.206,0.074,0.751-0.254,1.821c-0.352,1.138-0.059,2.4,0.746,3.218c0.492,0.499,1.127,0.774,1.783,0.774
			c0.225,0,0.449-0.031,0.666-0.096c0.889-0.259,2.072-1.148,2.66-3.913c0.943-4.42-0.086-6.009-1.08-7.544l-0.037-0.059
			c-0.223-0.345-0.432-0.67-0.615-1.039c-0.703-1.407-1.881-3.764-3.953-3.764c-0.238,0-0.486,0.031-0.734,0.094
			c-0.262,0.064-0.539,0.156-0.834,0.253l-0.045,0.015c-0.232,0.078-0.818,0.273-1.225,0.352c0.059-0.431,0.1-0.835,0.139-1.227
			l0.012-0.105c0.178-1.761,0.295-2.63,1.029-3.133c1.928-1.319,1.588-3.973,1.34-5.912c-0.047-0.357-0.084-0.652-0.109-0.919
			c-0.02-0.234,0.043-0.392,0.221-0.543c0.289-0.248,0.742-0.348,1.014-0.341c0.217,0.346,0.395,1.509,0.514,2.289l0.066,0.437
			c0.303,1.943,1.68,4.479,6.516,5.531c0.162,0.035,0.324,0.053,0.482,0.053c0.672,0,1.236-0.313,1.588-0.883
			C82.589,42.239,80.802,38.074,79.456,36.409z"/>
		<path d="M7.275,43.96c0.098,0,0.195-0.012,0.289-0.033c0.328-0.076,0.606-0.275,0.784-0.563c0.178-0.286,0.234-0.624,0.157-0.953
			c-0.101-0.429-0.336-1.433-0.031-1.832c0.215-0.282,0.828-0.46,1.68-0.489c3.565-0.125,4.657-1.771,5.713-3.363
			c0.557-0.839,1.132-1.707,2.178-2.517c0.898-0.696,1.34-0.789,1.476-0.799c0.103,0.138,0.474,0.811,0.317,3.198
			c-0.091,1.394,0.18,2.419,0.829,3.137c0.909,1.004,2.22,1.049,3.276,1.086c0.462,0.016,0.899,0.031,1.211,0.118
			c0.473,0.131,0.962,0.195,1.496,0.195c0.419,0,0.801-0.039,1.137-0.072c0.236-0.024,0.48-0.048,0.665-0.048
			c0.213,0,0.255,0.034,0.261,0.041c0.474,0.517,1.019,0.779,1.619,0.779l0.048-0.001c1.154-0.031,1.921-0.967,3.083-2.383
			c0.079-0.097,0.161-0.197,0.246-0.299l0.081-0.099c0.04-0.048,0.071-0.08,0.093-0.1c0.168,0.055,0.508,0.262,0.718,0.39
			c0.639,0.388,1.513,0.919,2.584,0.919c0.448,0,0.898-0.095,1.338-0.284c1.834-0.786,2.309-1.369,3.215-2.622
			c0.32-0.443,0.719-0.995,1.324-1.715c0.826-0.986,1.947-1.427,2.691-1.427c0.195,0,0.365,0.031,0.492,0.089
			c0.088,0.041,0.357,0.166,0.221,0.965c-0.215,1.251,0.029,2.195,0.725,2.806c0.461,0.405,1.045,0.602,1.785,0.602
			c0.891,0,1.842-0.292,2.609-0.528c0.301-0.092,0.641-0.197,0.797-0.218c0.125,0,0.467,0.084,0.65,0.129
			c0.393,0.097,0.93,0.229,1.518,0.229c1.543,0,2.654-0.941,3.303-2.797c0.787-2.248,1.318-2.326,3.072-2.583l0.076-0.011
			c0.162-0.024,0.328-0.048,0.5-0.076c3.91-0.625,4.641-3.181,5.229-5.245c0.164-0.571,0.318-1.111,0.531-1.603
			c0.344-0.794,0.988-1.208,1.805-1.73c1.07-0.688,2.404-1.542,2.969-3.461c0.232-0.789,0.857-1.288,1.285-1.47
			c-0.025,0.211-0.104,0.577-0.328,1.126c-0.9,2.213-1.084,3.439-0.652,4.374c0.398,0.867,1.191,1.129,1.672,1.289
			c0.158,0.052,0.322,0.107,0.395,0.155l0.014,0.012c0.238,0.269,0.582,0.423,0.941,0.423c0.311,0,0.607-0.113,0.84-0.319
			c0.252-0.224,0.4-0.533,0.42-0.869s-0.094-0.661-0.318-0.912c-0.139-0.157-0.289-0.292-0.445-0.4
			c-0.379-0.261-0.756-0.386-1.074-0.492c-0.045-0.015-0.094-0.031-0.141-0.047c0.018-0.276,0.137-0.909,0.688-2.261
			c0.705-1.729,0.699-3.043-0.018-3.904c-0.527-0.634-1.383-0.897-2.307-0.707c-1.281,0.265-2.859,1.479-3.393,3.29
			c-0.299,1.015-0.975,1.449-1.91,2.049c-0.988,0.633-2.107,1.351-2.756,2.851c-0.283,0.651-0.467,1.298-0.646,1.926
			c-0.525,1.844-0.875,3.062-3.197,3.433c-0.188,0.03-0.369,0.057-0.545,0.083c-1.951,0.287-3.795,0.557-5.086,4.246
			c-0.33,0.942-0.58,1.115-0.951,1.115c-0.227,0-0.516-0.072-0.887-0.163c-0.402-0.1-0.82-0.203-1.258-0.203
			c-0.129,0-0.256,0.009-0.377,0.027c-0.338,0.051-0.736,0.174-1.158,0.303c-0.393,0.121-1.465,0.441-1.926,0.422
			c-0.004-0.095,0-0.244,0.039-0.465c0.289-1.692-0.328-3.068-1.65-3.68c-0.457-0.211-0.975-0.318-1.541-0.318
			c-1.631,0-3.45,0.912-4.635,2.324c-0.664,0.792-1.093,1.384-1.444,1.87c-0.716,0.99-0.886,1.225-2.156,1.77
			c-0.121,0.052-0.236,0.077-0.351,0.077c-0.311,0-0.642-0.169-1.268-0.55c-0.469-0.285-1.253-0.762-2.118-0.762
			c-0.733,0-1.388,0.344-1.948,1.021l-0.333,0.405c-0.37,0.452-0.826,1.008-1.134,1.306c-0.504-0.452-1.119-0.664-1.928-0.664
			c-0.317,0-0.619,0.03-0.914,0.06c-0.306,0.031-0.595,0.06-0.885,0.06c-0.308,0-0.568-0.032-0.821-0.103
			c-0.603-0.168-1.212-0.188-1.806-0.209c-0.576-0.02-1.294-0.044-1.486-0.257c-0.058-0.064-0.243-0.347-0.182-1.278
			c0.128-1.961,0.097-4.675-1.655-5.606c-0.356-0.189-0.748-0.285-1.162-0.285c-1.321,0-2.57,0.968-3.04,1.332
			c-1.371,1.063-2.126,2.199-2.735,3.117c-0.922,1.39-1.431,2.156-3.698,2.235c-1.681,0.059-2.891,0.557-3.596,1.479
			c-1.029,1.345-0.619,3.097-0.422,3.939C6.182,43.56,6.687,43.96,7.275,43.96z"/>
	</g>
	<path stroke="#000000" stroke-width="0.25" stroke-miterlimit="10" d="M41.591,23.014c-5.256,0-9.532,4.276-9.532,9.532
		c0,8.058,8.382,15.167,8.742,15.47c0.229,0.184,0.502,0.28,0.79,0.28c0.292,0,0.574-0.101,0.798-0.286
		c0.355-0.298,8.736-7.393,8.736-15.464C51.125,27.29,46.85,23.014,41.591,23.014z"/>
	<path fill="#FFFFFF" d="M41.591,25.204c4.044,0.006,7.339,3.299,7.345,7.342c0,5.879-5.406,11.435-7.345,13.235
		c-1.936-1.803-7.342-7.36-7.342-13.234C34.254,28.503,37.548,25.21,41.591,25.204z"/>
	<circle cx="39.023" cy="55.932" r="1.816"/>
	<circle cx="49.59" cy="50.816" r="2.02"/>
	<circle cx="32.498" cy="47.902" r="1.625"/>
	<circle cx="25.94" cy="48.797" r="2.02"/>
	<g>
		<path d="M44,26.437c-0.201,2.075-0.462,4.091-0.68,6.149c0.918,0.1,2.021,0.014,3.012,0.043c-2.1,2.99-4.205,5.976-6.362,8.908
			l-0.021-0.063l-0.063-0.022c0.151-2.041,0.326-4.057,0.508-6.065c-0.917-0.101-2.02-0.015-3.01-0.044
			c-0.125-0.027,0.196-0.415,0.297-0.551c2.04-2.745,4.18-5.677,6.234-8.441l0.022,0.063L44,26.437z"/>
	</g>
</g>
</svg>
